<?xml version="1.0" encoding="UTF-8"?><svg id="Layer_1" xmlns="http://www.w3.org/2000/svg" width="115" height="140" viewBox="0 0 115 140"><defs><style>.cls-1{fill:#fdfbe0;}</style></defs><path class="cls-1" d="M17.62,78.62c.37-.05-1.4.1-.43,1.81-.15-.26,1.01-.3,1.12-.24,7.35,4,15.31-5.66,9.09-11.78-1.83-1.8-3.66-3.6-5.49-5.4-1.02-1-3.42-2.52-3.82-3.79.69,2.15-1.43.05.58.34,1.84.27,4.67-.54,6.68-.45,9.82.42,9.38-13.96,0-15-2.27-.25-2.82-4.8-3.11-6.27-.15-.77-.29-1.55-.41-2.32-.31.99-.87,1.71-1.67,2.14-.07-.12,2.9.31,3.27.39,4.34.89,9.98-2.05,9.49-7.23-.18-1.95-1.57-9.01,1.41-9.79,1.08-.28,1.69,3.64,1.92,5.15,1.28,8.68,14.39,6.06,14.73-1.99.12-2.77,5.62-2.47,4.65.74-2.64,8.77,8.9,12.09,13.71,5.78,1.38-1.81,4.62-3.73,7.03-3.1.75.2,1.36.57,1.85,1.17.89,1.1.45.47-.06,1.74l14.73,1.99c.02,5.81-3.81,2.81-3.88,3.45-.07.7,1.06,2.49,1.29,3.23.47,1.54,2.09,5.58-.45,5.41-3.68-.24-6.95,3.03-7.37,6.5-.47,3.95,1.8,6.83,5.37,8.23,2.66,1.04,7.18,3.66,7.4,7,.18,2.72-2.36,3.98-4.69,3.8-5.27-.4-9.9,6.85-6.48,11.29,1.51,1.95,5.98,6.58,5.55,9.46-.3,2-1.26,2-2.41,1.53-5.11-2.07-11.18,4.17-9.23,9.23.9,2.33,1.33,4.42,1.68,6.86.48,3.3-.72.32,1.19.37-1.01-.03-2.13.43-3.13.53-.97.11-1.94.13-2.91.06-.95-.43-.98-.39-.07.11-1.66-7.54-12.38-6.72-14.46,0-1.15,3.7-4.48,5.84-8.2,6.43-1.92.3-1.48.2-1.96-.88-.74-1.69-.22-4.47-.06-6.19l-14.73,1.99c-.57-3.06.56-.27-.41-.6-.44-.15-.62.39-.59-.09.03-.45-.33.51-.15-.11.24-.85-.3.01,1.42-1.47l-10.61-10.61c-.9,1.1-1.24,1.4-2.73.9-.75-.25-1.03-.87-1.63-1.28-.26-.27-.46-.58-.59-.93-.55-1.52-1.7-1.13-3.45,1.17l-5.51-7.23c-.1,12.36,11.33,21.89,23.39,21.06,3.14-.22,6.53-2.16,7.23-5.51,2.77-13.21-4.66-25.61-6.9-38.41-1.08-6.21-1.38-12.65-.79-18.93.26-2.79.77-5.55,1.47-8.26.43-1.68.94-3.36,1.52-5,.18-.5,1.58-3.44.9-3.01l-3.79,1.02,1.14-.09-3.79-1.02c-1.02-1.6-1.24-1.66-.63-.2.39,1.16.76,2.32,1.1,3.5.68,2.33,1.26,4.7,1.76,7.08.86,4.1,1.42,8.24,1.77,12.42.72,8.53.68,17.1.51,25.65-.16,8.13-1.12,16.73.83,24.73,1.66,6.81,7.32,16.58,15.83,14.2s8.28-14.04,5.7-20.69c-3.3-8.51-9.05-16.05-12.93-24.34-3.54-7.58-6.26-15.85-6.6-24.26-.17-4.2.17-8.31,1.27-12.37.32-1.17.69-2.33,1.12-3.47-3.39,2.05-3.63,2.84-.7,2.35,1.83.49,4.16-.63,5.9.06l-4.48-3.45.61,1.08-1.02-3.79c.34,7.99-.25,15.96.32,23.97.58,8.22,1.67,16.43,3.24,24.51,1.84,9.49,5.72,37.73,20.54,35.12,7.5-1.32,8.82-9,8.31-15.36-.66-8.08-2.39-16.02-4.38-23.86-3.89-15.38-8.96-31.3-4.84-47.18l-14.73-1.99c1.23,15.2,9.64,29.03,14.37,43.36,4.5,13.61,11.8,29.88,8.26,44.38l14.73,1.99c-.49-8.57,1.64-15.64,5.3-23.28,3.52-7.34,5.81-14.75,5.28-23-1.05-16.56-10.21-30.35-19.94-43.17-3.92-5.16-11.46-4.69-13.71,1.79-4.18,12.09-2.54,29.28,7.45,38.35,6.09,5.53,13.26,2.6,17.06-3.73s5.65-13.9,5.62-21.36c-.01-3.82-3.43-7.82-7.5-7.5-7.21.57-14.68-2.57-20.37,3.84-4.94,5.56-2.84,14.3-3.81,21.11-2.33,16.35-9.73,31.52-16.82,46.23-3.31,6.86,3.36,13.64,10.26,10.26,9.26-4.53,15.16-12.98,18.96-22.31,1.95-4.79,3.26-9.79,4.75-14.74.81-2.69,1.62-5.43,2.73-8.02.41-.96.87-1.92,1.37-2.83,1.28-2.34,1.49-1.54.27-1.57l-3.79-1.02,1.06.47-2.69-10.26c-3.37,7.09-6.74,14.18-10.11,21.27-4.1,8.63,7.77,15.87,12.95,7.57,5.58-8.92,11.72-17.7,16.64-27,2.19-4.14,4.53-8.95,4.79-13.72.31-5.81-3.17-9.04-7.86-11.76-8.46-4.92-18.54-6.6-26.5.24s-7.99,16.24-9.33,25.76c-1.41,10.06-6.31,17.69-10.84,26.5-2.14,4.16-3.45,8.42-4.31,13-.97,5.2-2.35,9.11-4.9,13.7-4.55,8.2-5.07,19.07,4.4,24,8.35,4.35,18.08.59,23.44-6.52,3.3-4.37,5.53-10.66,1.1-15.21-3.61-3.71-11.25-4.49-16.03-5.88-6.43-1.88-11.72-2.71-16.34,2.98-3.13,3.84-6.47,5.43-11.5,4.81l3.79,1.02c2.53,1.09-.58,1.78.89.05.64-.75,1.04-1.7,1.69-2.47,1.73-2.03,3.95-3.61,6.16-5.07.98-.64,2.04-1.57,3.14-1.95.37-.25.76-.45,1.18-.6l-.18.38c2.57.44,5.88,3.11,8.37,4.14,5.78,2.41,11.72,3.86,17.93,4.6,5.75.69,13.61,1.44,18.97-1.18,5.98-2.93,5.86-10.21,6.8-15.93,1.12-6.86,2.25-13.72,3.37-20.58,2.36-14.37,4.71-28.74,7.07-43.11l-14.73-1.99c.45,8.38,6.23,26.65,17.79,17.83,7.7-5.88,7.19-20.77.37-26.99-9.36-8.53-19.49.77-29.08,3.17-8.61,2.16-19.39.64-24.48-7.43l-6.48,11.29c6.02-.17,11.27,4.86,17.42,5.38,6.14.52,11.49-2.88,17.52-2.71,7.43.21,13.37-5.35,11.16-13.14-1.75-6.16-7.88-9.51-13.91-10.04s-11.9,1.88-16.08,6c-2.36,2.33-4.04,5.09-5.16,8.2-.84,2.34-.85,5.78-2.09,7.89-.23.39.04,1.77-1.01.34-1.28-1.76-.25-3.99.45-5.82,2.52-6.56,4.72-13.84-1.75-19.1l1.17,9.09c-2.32,2.48-4.38,2.65-6.19.49l-.08.11c-.27.09.12,5.51.13,6.14.07,4.14.15,8.28.22,12.43.17,9.64,15.17,9.67,15,0-.09-5.1-.16-10.2-.27-15.29-.09-4.06-.25-7.95-2.45-11.49-4.3-6.91-15.26-7.3-19.31.05-1.47,2.67-1.41,6.99,1.17,9.09.17-1.26.13-1.33-.12-.21-.36.87-.73,1.73-1.13,2.58-.86,2.02-1.63,3.96-2.02,6.13-.7,3.94-.47,7.95,1.24,11.61,3.13,6.7,10.86,10.87,18.21,9.16s10.5-8.15,12.12-14.96c.59-2.47.9-4.77,3.08-6.33,1.38-.99,2.34-.57,3.62-1.19,1.65-.8.69,1.92.62-1.05l1.02-3.79,1.12-.94,3.79-1.02c-3.5.47-6.78-.2-10.33.66-2.84.69-5.77,2.41-8.73,2.18-2.69-.21-5.42-2.07-7.86-3.12-3.45-1.48-6.77-2.43-10.57-2.32-5.49.16-9.61,6.32-6.48,11.29,6.48,10.28,18.08,15.74,30.09,15.76,6.45.01,12.8-1.5,18.7-4.01,1.44-.61,6.72-4.27,8.2-3.72-.8-.3-.31,1.1-.35,1.9l-.21,1.24c-.67,1.92-.51,2.12.47.58l3.79-1.02-1.04-.13,6.48,3.71c-1.62-2.7-2.6-5.31-2.77-8.47-.43-7.93-13.29-10.79-14.73-1.99-3.11,18.94-6.21,37.89-9.32,56.83-.22,1.32-2.83,15.6-2.57,15.68,2.88-1.94,3.36-2.75,1.46-2.41-.87.07-1.74.11-2.61.13-2.32.06-4.66,0-6.97-.25-3.93-.41-7.83-1.36-11.56-2.66-3.95-1.37-7.35-3.69-11.17-5.29-7.85-3.27-14.69,1.29-20.79,5.93s-11.44,10.55-11.74,18.46c-.35,9.23,6.58,14.21,15.29,13.33,3.85-.39,7.63-1.54,10.97-3.52,3.63-2.15,5.47-5.56,8.57-8.06l-5.3,2.2c2.43-.31,5.44,1.16,7.75,1.83,2.57.75,5.66,1.21,8.08,2.37l-3.45-4.48.39,1.27v-3.99c-.4,1.25-4.04,5.56-5.36,4.02-.52-.61,4.77-9.24,5.29-10.49,2.02-4.92,2.27-10.16,3.73-15.22,1.34-4.65,4.27-8.57,6.56-12.78,5.1-9.36,7.4-19.16,8.44-29.69.35-3.53.79-8.83,4.33-10.82,1.58-.89,3.3-.55,4.94.03.99.35,1.92.91,2.84,1.41.74.42,1.47.85,2.19,1.31,1.24.86,1.03.5-.62-1.07v-3.99c-.87,6.44-4.65,11.92-8.02,17.31-3.92,6.28-7.84,12.55-11.77,18.83l12.95,7.57c3.37-7.09,6.74-14.18,10.11-21.27,1.59-3.34,1.25-8.5-2.69-10.26-14.34-6.39-20.49,11.38-23.67,21.93s-5.84,22.71-16.82,28.08l10.26,10.26c6.13-12.7,12.33-25.58,16.07-39.23,1.75-6.41,2.92-13.07,3.3-19.72.08-1.43.48-4.01.11-5.41.3-1.57.07-1.79-.68-.66-.92.66-.92.89.02.66,1.47,1.13,7.37.76,9.24.61l-7.5-7.5c.01,3.02-.32,5.78-1.24,8.67-.41,1.28-.88,2.44-1.5,3.64-.67,1.3-3.51,3.8-.58,1.72l3.79-1.02c1.43-.15,1.89,2.21,1.39.3-.29-1.07-1.45-2.37-1.94-3.44-.92-1.99-1.59-4.17-1.95-6.33-.75-4.39-.06-8.65,1.38-12.81l-13.71,1.79c8.6,11.32,18.42,24.18,17.96,39.14-.23,7.27-4.27,13.17-6.91,19.72-2.96,7.31-4.18,15.15-3.73,23.02s12.64,10.58,14.73,1.99c3.92-16.08-1.72-31.87-6.56-47.1-2.42-7.62-5.02-15.18-8.1-22.57s-6.81-14.28-7.44-22.06-12.49-10.64-14.73-1.99c-3.58,13.82-1.85,27.88,1.4,41.59,1.58,6.65,3.46,13.23,4.98,19.9.75,3.31,1.47,6.65,1.93,10.02.23,1.71.14,3.68.51,5.36.66,3.02-1.35,1.61,1.78-.32l3.79-1.02-.97.07,3.79,1.02c-2.38-1.81-3.14-6.04-3.91-8.72-1.23-4.26-2.3-8.57-3.23-12.9-1.71-8-2.87-16.08-3.46-24.25-.32-4.4-.47-8.82-.48-13.23,0-3.97.92-8.86-.1-12.74-2.23-8.42-13.38-7.78-20.13-6.64-8.33,1.41-10.49,9.93-11.58,17.18-1.26,8.28-.71,16.6,1.26,24.74s5.33,15.75,9.14,23.08c2,3.84,4.19,7.57,6.38,11.31.89,1.52,1.87,3.06,2.59,4.66.48.99.84,2.02,1.08,3.09-.18,1.95.45,1.85,1.88-.28l3.79-1.02-1.5-.19,5.3,2.2c-5.16-4.23-3.77-12.95-3.63-18.86.19-7.95.41-15.91.17-23.86-.26-8.55-1.06-17.15-2.81-25.53-1.37-6.54-2.86-17.06-10.02-19.72-16.34-6.05-19.36,26.16-19.39,35.77-.02,7.97,1.14,16.02,3.06,23.75,1.79,7.21,7,16.01,5.43,23.53l7.23-5.51c-3.88.27-8.43-1.59-8.39-6.06.02-3.07-2.33-6.62-5.51-7.23-13.3-2.57-19.65,11.6-12.8,21.99,6,9.1,20.25,12.48,27.82,3.22,6.07-7.43-3.22-17.01-10.61-10.61-8.65,7.5-7.12,21.72,3.9,26.21,11.42,4.66,23.08-5.61,20.91-17.33-1.65-8.87-14.02-5.85-14.73,1.99-.97,10.59,3.41,21.6,15.5,22.08,10.97.44,21-7.15,24.19-17.45h-14.46c2.42,11.02,15.53,12.35,24.6,9.68,11.38-3.35,11.14-16.34,7.57-25.59-3.08,3.08-6.15,6.15-9.23,9.23,7.67,3.11,16.3-1.65,19.76-8.7,4.23-8.63-.69-17.5-5.96-24.33-2.16,3.76-4.32,7.52-6.48,11.29,10.2.77,19.58-7.98,19.71-18.22.14-10.97-9.14-18.41-18.43-22.05l-1.99,14.73c6.62.43,12.68-3.72,15.08-9.84s.78-13.7-2.07-19.62c-2.6-5.41-7.6-9.28-13.78-8.9-6.09.38-11.19,5.02-11.18,11.27.03,9,11.73,9.47,14.73,1.99,3.53-8.78-3-18.48-11.51-21.11-9.67-2.99-18.98,2.2-24.72,9.73,4.57,1.93,9.14,3.85,13.71,5.78,2.95-9.81-4.06-20.1-14.11-21.49-10.27-1.42-19.58,6.51-20.01,16.75l14.73-1.99c-1.39-9.37-8.69-18.09-19.03-15.94-11.74,2.44-14.74,14.17-13.77,24.56,3.16-2.41,6.33-4.82,9.49-7.23-4.68-.96-9.8-1.53-14.19.82-5.1,2.73-6.85,7.98-6.09,13.48,1.51,10.86,6.41,19.93,18.21,21.24v-15c-8.86-.38-19.5,2.22-22.12,12.04s7.47,16.87,13.57,22.86l9.09-11.78c-8.07-4.39-19.95-1.3-22.64,8.25C.01,86.94,11.54,94.48,21.6,93.08c4-.56,6.23-5.69,5.24-9.23-1.21-4.32-5.18-5.8-9.23-5.24h0Z"/></svg>