<?xml version="1.0" encoding="UTF-8"?><svg id="Layer_1" xmlns="http://www.w3.org/2000/svg" width="220" height="130" viewBox="0 0 220 130"><defs><style>.cls-1{fill:#fdfbe0;}</style></defs><path class="cls-1" d="M35.65,65.37c-5.75.1-11.1-4.34-11.3-9.37s4.79-9.78,10.53-10.02c5.74-.25,11.24,4.05,11.61,9.07,4.68-7.71-1.57-19.28,6.05-24.92,4.91-3.63,12.91-1.79,17.22,2.39,4.3,4.18,5.86,9.94,7.27,15.43,4.84-3.4-.03-11.14,3.84-15.38,1.13-1.24,2.83-1.95,4.48-2.6,9.56-3.77,21.37-6.92,29.93-1.62,7.63,4.73,9.01,13.97,9.73,22.12,4.77-.65,2.27-7.54,4.98-11.03,1.06-1.36,2.88-2.08,4.64-2.65,5.13-1.67,10.55-2.68,16.02-2.98,3.16-.17,6.58-.05,9.1,1.62,2.38,1.57,3.5,4.19,4.1,6.74,1.37,5.79.67,11.94-2,17.37,2.45-4.87,9.58-6.98,15.48-5.67s10.58,5.3,13.92,9.75c2.3,3.06,4.13,6.5,4.43,10.15.48,6.01-3.69,12.09-9.98,14.54-6.29,2.45-14.25,1.1-19.03-3.23,2.3,5.13-.54,11.24-5.46,14.68s-11.44,4.62-17.74,4.78c-1.7.04-3.44.01-5.06-.46-7.26-2.1-7.79-10.79-6.94-17.43.12,4.18-2.84,8.07-6.67,10.58s-8.44,3.9-12.97,5.24c-3.49,1.04-7.26,2.08-10.8,1.19-4.16-1.04-7-4.62-7.83-8.33-.84-3.71,0-7.55,1.09-11.21,1.34,3.75-.96,7.92-4.42,10.42s-7.89,3.71-12.18,4.86c-5.38,1.44-11.89,2.68-16.07-.61-3.32-2.61-3.66-6.99-3.77-10.89-.06-2.37,2.36-5.77,4.18-4.01.62,2.16-.04,4.57-1.71,6.24-1.14,1.15-2.68,1.93-4.28,2.54-11.59,4.44-26.8-1.19-31.23-11.56-.72-1.69-1.14-3.72.04-5.21.67-.85,1.76-1.37,2.82-1.82,5.96-2.51,12.61-3.75,19.22-3.59,1.49,6.13-1.4,12.92-7.11,16.7,2.72-12.87,6.43-25.58,11.1-38.02,1.76-4.7,5.88-10.42,11.26-8.91-.43,12.22-.87,24.44-1.3,36.65-.14,4.07-.25,8.32,1.72,12.01s6.72,6.59,11.2,5.49c3.16-12.51,4.09-25.45,2.73-38.21-.32-3.03-.75-6.2.55-9.01,1.3-2.82,5.05-5.04,8.25-3.87,1.51.55,2.6,1.72,3.56,2.87,5.48,6.58,8.97,14.42,10.03,22.51.62,4.74.44,9.6,2.03,14.16,1.59,4.56,5.55,8.94,10.96,9.53,2.45-12.5.51-25.63-5.51-37.16-3.76-7.2-9.13-15.42-4.92-22.43,9.34,12.87,18.68,25.74,28.01,38.61,5.79,7.98,13.46,16.91,24.26,16.83,3.65-5.2-2.36-11.23-6.65-16.04-5.83-6.52-9.06-14.79-9.03-23.07,2.72-.98,5.7.6,8.08,2.11,11.96,7.57,23.92,15.15,35.88,22.72"/><path class="cls-1" d="M35.65,42.87l3.16.49c2.93,1.48,3.64,1.8,2.16.97-1.33-.86,2.37,2.1,2.87,2.68,4.52,5.33,3.9,14.77-1.73,19.04-1.76,1.34-3.43,2-5.63,2.26-1.42.17-6.85-1.18-3.39-.04-1.95-.64-3.8-1.47-5.28-2.95-1.19-1.14-2.04-2.49-2.55-4.02-.68-1.94-.84-2.04-.45-.28,1.37,8.62,10.83,15.06,18.71,16.12,8.54,1.15,18.21-2.8,22.42-10.74,3.39-6.41,4.85-12.75,5.03-19.99.05-2.15.08-4.39-.01-6.54-.13-3.1-.23,1.5-.41,2.29.77-3.39-1.27,2.39-2.06,3.39-1.38,1.77-2.89,3.06-4.95,3.98-.98.44-6.81,1.16-3.49,1.19-.95,0-4.97-.83-1.96.04l-2.87-1.16c1.58,1,1.55.92-.09-.24-4.24-2.82,2.37,2.02-.98-.76-1.1-1.44-1.12-1.32-.06.36l-.99-2.52c-.08,2.1,1.71,5.38,2.25,7.48,4.45,17.21,25.31,20.81,37.61,9.93,7.26-6.43,9.53-16.45,8.79-25.76l.04-1.22c-.21,5.82-2.71,10.35-7.49,13.6-1.99,1.13-4.18,1.62-.75.36,3.01-1.11,6.08-2.07,9.22-2.73,4.98-1.04-.42-.3-.49,0,.06-.25,4.6.03,4.6.04-3.25-.51-4.02-.56-2.32-.14,1.63.48.99.16-1.92-.96,4.01,2.14-2.7-3.35.07-.07-1.87-2.64-2.35-3.24-1.45-1.82.38.57.71,1.17,1,1.79l-1.21-2.83c.31.88.58,1.77.81,2.67.29,1.14.46,2.3.71,3.45.29,1.76.18.92-.32-2.5.1.92.19,1.83.27,2.75,1.34,14.48,13.3,25.67,28.48,21.7,9.72-2.54,16.38-10.11,18.9-19.65.64-2.43.72-5.05,1.01-7.55.26-2.28-1.5,5.93-.14,2.28-2.45,3.34-4.9,6.67-7.35,10.01-3.11,1.25-3.75,1.57-1.93.97,1.45-.26,2.92-.85,4.36-1.18.58-.13,3.07-1.01,3.56-.72-2.68.31-3.17.38-1.47.2.91-.1,1.82-.17,2.73-.22.55-.03,2.83.28,3.2-.03-2.09,1.72-8.73-3.9-9.87-5.28-.74-.9-3.76-5.75-1.83-2.84.4,2.05.43,2.12.09.2-.2-1.66-.28-1.85-.22-.58-.91,4.51,1.21.5.26-.37.51.47-2.72,7.12.15.78-4.84,10.7-3.43,24.71,8.07,30.78,10.89,5.75,24.31,2.71,30.78-8.07-.85,1.44-1.97,2.59-3.37,3.44-1.5,1.02-1.74,1.22-.71.6,2.19-1.36-4.78,1.5-.91.59-3.42.34-4.24.5-2.46.47,1.78.04.95-.11-2.48-.44,3.08.72-.48,0-1.18-.82.66.31,1.3.66,1.92,1.05,1.42.9.88.42-1.61-1.43.49.71,1.49,1.32,2.11,1.95.5.5.98,1.03,1.43,1.58,1.04,1.23.63.7-1.24-1.58.23.02,3.13,5.04,1.13,1.58-.57-1.48-.68-1.63-.34-.45.44,1.8.32,1-.36-2.38l.46-3.43c-.55,1.75-.47,1.66.23-.25.76-1.65.84-1.96.24-.93-.9,1.42-.42.79,1.45-1.9-2.42,2.99,2.87-1.93.68-.59s5.14-1.61.66-.53c2.02-.49,4.46-.59.87-.46-2.67.1,4.8,1.17.96-.13l2.72,1.17c-2.06-1.24-1.69-.86,1.09,1.15-7.52-6.19-18.36-9.26-27.27-3.52-7.94,5.12-13.8,15.85-10.34,25.41.76,2.37.76,1.7,0-2.01-.05-2.19.5-4.22,1.65-6.08-1.25,2.02-.94,1.67.94-1.05,2.71-1.85,3.05-2.11,1.02-.78-2.16,1.12-1.74,1.01,1.25-.35-.97.35-1.96.64-2.97.89-1.02.25-2.05.45-3.08.61,3.11-.39,3.79-.52,2.05-.37-1.8-.04-6.93-.9-1.45.46,3.13.78,10.01,5.19,9.38,9.27-.25-.77-.44-1.55-.58-2.35.45,3.94.61,4.69.48,2.25.13-1.64.12-3.27.3-4.92h-45c.17-3.28,1.21-5.87,3.38-8.26-3.08,3.39,3.62-2.12-.37.3s3.35-.76-1.04.49c-2,.57-3.96,1.28-5.97,1.84-4,1.12-2,.25.85.69,3.02.47,5.55,2.18,7.35,4.59,1.09,1.2,1.78,2.63,2.07,4.27-.43-1.6-.47-1.64-.12-.11.37,1.1.33,2.22-.1,3.34.26-1.25.58-2.49.96-3.71h-43.39c-1.19-4.76.2-9.8,3.47-13.36-2.89,3.15,3.61-1.89-.32.03,5.07-2.48.58-.37-.82.04-1.81.54-3.65,1.03-5.49,1.45-.77.19-1.54.35-2.32.48,3.12-.34,3.81-.47,2.08-.4-1.79,0-1.04.17,2.26.51,2.21.67,3.96,1.98,5.23,3.94,2,1.41,3.23,3.3,3.7,5.67-.43-1.83-.47-1.69-.13.4.23,2.11.27,2.23.12.34-.02-7.03-2.9-2.46-8.65,13.71l-11.36,3.07.83-.07c-3.79-1.02-7.57-2.05-11.36-3.07l.81.46-10.34-13.45c-1.09-7.63.89-13.4,5.92-17.3,2.81-1.12,3.45-1.44,1.92-.97-.64.19-1.28.35-1.94.47,3.57-.39,4.46-.52,2.67-.41-.67.05-1.34.06-2.01.04-2.45-.16-1.79-.02,1.98.42-.86-.55-2.92-.72-3.9-.94-4.05-.91,3.92,2.5.53.21-.76-.41-1.49-.86-2.2-1.35l2.54,1.97c-.63-.54-1.23-1.12-1.8-1.73l1.97,2.64c-.47-.66-.89-1.35-1.26-2.07,1.08,1.95,1.75,4.04,1.99,6.26-1.02,3.79-2.05,7.57-3.07,11.36-1.71,2.99-4.06,5.03-7.04,6.1-1.89.77-1.78.76.33-.02,1.44-.38,2.84-.85,4.3-1.18.58-.14,1.17-.26,1.75-.36,1.68-.3,1.17-.24-1.53.18,1.29-.65,4.05-.19,5.4-.18l-21.7-16.52c-.17-.9-.31-5.08-.43-1.98l.43-3.32c-.56,1.78-.48,1.74.23-.13,1.68-4.06-1.82,1.9.81-1.4s-3.92,2.57,2.2-1.87l33.05,25.41c1.79-8.29,3.92-16.5,6.47-24.59,1.23-3.92,2.64-7.76,3.97-11.65,1.91-5.58-2.39,3.57.14,0-2.25,2.63-2.58,3.08-.99,1.36-3.87,3.79-8.84,5.01-14.9,3.66l-16.52-21.7c-.48,13.66-1.87,27.62-1.34,41.27.38,9.9,3.58,19.31,10.8,26.33,8.52,8.29,19.33,10.04,30.65,8.26,7.33-1.16,14.03-8.81,15.71-15.71,2.74-11.24,4.32-23.01,4.12-34.6-.04-2.56-.18-5.12-.4-7.68-.08-.96.09-5.92-.52-6.5,1.48,1.42-3.59,8.81-4.31,9.52-2.25,1.28-4.49,2.56-6.74,3.84-5.22-1.34-10.44-2.68-15.67-4.02l1.02,1.14-1.43-1.86c.97.69,1.71,2.55,2.29,3.54s1.01,2,1.58,2.95c1.52,2.51-1.08-3.61-.33-.8.56,2.1,1.14,4.24,1.73,6.33.81,2.86-.23-4.09-.13-.89.04,1.19.19,2.4.29,3.58.35,3.77.72,7.6,1.55,11.29,2.93,13.05,13.87,25.46,27.38,27.84,11.11,1.96,25.37-2.87,27.68-15.71s2.48-26.44-1.5-39.38c-1.85-5.99-4.5-11.79-7.44-17.31-.66-1.24-1.29-2.51-1.97-3.75-1.59-2.89-.5.3.23.79-.98-.67-.45-5.37-.69-1.58-.17,2.72.02,4.36-1.32,7.01h-38.86c9.6,13.23,19.05,26.59,28.82,39.7,10.84,14.56,23.7,26.3,42.89,26.88,7.73.23,15.68-4.42,19.43-11.14,8.19-14.68,2.53-28.69-7.58-40.41-1.09-1.26-2.91-2.65-3.65-4.14,1.85,2.42,2.08,2.63.71.6-.56-.91-1.08-1.84-1.55-2.79,1.15,2.98,1.3,3.31.44,1-.34-.99-.63-1.99-.87-3.01-.49-2.49-.48-2.03.04,1.38-.1-1.03-.14-2.07-.14-3.1l-16.52,21.7c-3.73,1.02-7.23.72-10.49-.9l1.24.75c1.41,1.22,3.31,2.09,4.89,3.1,3.53,2.24,7.07,4.48,10.6,6.71,6.8,4.3,13.59,8.61,20.39,12.91,9.96,6.31,25.25,2.41,30.78-8.07,5.87-11.1,2.56-24.05-8.07-30.78-8.43-5.34-16.85-10.67-25.28-16.01-3.93-2.49-7.78-5.19-11.84-7.46-7.78-4.36-15.45-5.46-24.18-3.63-9.42,1.97-16.71,12.3-16.52,21.7.2,10.04,2.73,19.85,7.82,28.54,2.45,4.18,5.62,7.94,8.81,11.57.71.78,1.41,1.57,2.09,2.37l-1.56-2.08c.59.81,1.12,1.65,1.58,2.54-2.6-5.06-2.6-10.12,0-15.18,6.48-3.71,12.95-7.43,19.43-11.14-5.22-.16,5.36.16.39.02-2.94-.09.79-.49,1.56.72-.21-.32-3.12-2.03-3.51-2.2,1.77.77,3.36,2.79.83.33-1.7-1.65-3.19-3.45-4.71-5.26-1.81-2.14,2.88,3.97.6.71-1.14-1.63-2.34-3.22-3.5-4.83-8.17-11.26-16.34-22.52-24.51-33.79-4.79-6.6-10.89-11.14-19.43-11.14-7.56,0-15.91,4.2-19.43,11.14-4.4,8.69-5.66,17.44-3.24,26.95,1.64,6.44,5.16,12.32,8.16,18.19.43.85,1.46,2.23,1.54,3.18-1-2.41-1.21-2.84-.64-1.3.21.55.39,1.1.57,1.66.21.66,2.2,7.51,1.91,7.59-.32-2.84-.39-3.4-.21-1.69.07.57.12,1.15.15,1.72.1,1.44.16,2.88.15,4.32,0,1.15-.09,2.3-.13,3.45-.18,5.73.92-4.77-.1.88,9.23-5.24,18.45-10.48,27.68-15.71-3.95-.7,2.88,1.98.69.65-1.01-.63-.81-.46.61.51,1.33.76,2.32,1.85,2.99,3.27-1.78-2.94.73,1.28.46,1.76-.52.9-.5-6.37-.74-2.25-.19,3.3-.06-1.59-.13-2.36-.2-2.2-.46-4.37-.76-6.56-.43-3.17-.85-6.31-1.76-9.39-4.49-15.25-15.08-33.09-32.16-35.38-20.07-2.7-34.98,15.38-33.16,34.51.57,6.01.86,12,.53,18.04-.09,1.6-.21,3.2-.37,4.79-.06.64-.13,1.28-.2,1.91-.2,1.68-.15,1.27.15-1.21.45,2.67-1.32,6.85-1.95,9.45l15.71-15.71c3.94-1.11,7.54-.68,10.79,1.32,2.63,2.33,3.09,2.69,1.39,1.07,1.5,1.38,2.55,3.04,3.17,4.97-.52-2.46-.46-1.98.16,1.45.32-.53.02-3.95.04-4.62.08-2.57.18-5.14.27-7.72.34-9.65.68-19.29,1.03-28.94.32-9.05-7.16-20.05-16.52-21.7-10.71-1.88-20.93.02-28.88,7.91-5.54,5.5-8.43,12.18-11.04,19.38-4.19,11.54-7.53,23.35-10.11,35.35-1.94,9,.62,17.9,8.06,23.65,6.56,5.07,17.77,7,24.99,1.76,14.19-10.3,20.78-24.66,17.45-42.11-1.84-9.63-12.39-16.47-21.7-16.52-10.47-.05-22.37,1.88-31.63,7.14C1.24,63.1-1.57,80.67,6.2,94.07c10.24,17.65,31.3,24.79,50.68,21.59,12.37-2.05,23.12-10.38,26.82-22.51,2.65-8.69.31-18.57-5.76-25.19-7.1-7.73-20.55-9.18-29.3-3.67-11.95,7.53-15.32,21.75-11.97,34.86,3.62,14.15,15.91,23.34,30.27,24.12,24.9,1.35,56.2-16.56,49.06-45.15-2.3-9.2-12.06-16.95-21.7-16.52s-18.92,6.68-21.7,16.52c-3.14,11.12-3.15,23.29,3.42,33.21,7.54,11.39,20.09,16.33,33.43,14.54,21.48-2.89,43.32-15.5,44.53-39.24.6-11.77-10.77-23.03-22.5-22.5-13.32.6-21.08,9.93-22.5,22.5-.98,8.67.63,17.96,5.22,25.45,7.08,11.58,20.27,15.89,33.23,14.69,11.49-1.06,22.94-4.21,31.43-12.54,9.02-8.84,13.97-22.84,9.52-35.15-12.54,7.3-25.07,14.59-37.61,21.89,13.61,11.2,31.52,14.63,47.61,6.17,14.96-7.86,22.66-25.4,18.6-41.69-3.68-14.76-16.62-27.59-30.81-32.43-16.07-5.48-34.89.41-43.73,15.14,12.95,7.57,25.9,15.14,38.86,22.71,5.17-11.42,7.66-23.63,3.92-35.98-4.34-14.31-16.54-23.1-31.35-23.63-10.48-.37-22.47,1.79-31.89,6.55-7.02,3.55-11.54,9.21-14.2,16.49-1.09,2.96-1.27,5.77-1.65,9.03-.31,2.37-.18,1.44.39-2.8-1.57,6.76,2.61,2.84,12.53-11.78,9.49,7.23,18.99,14.46,28.48,21.7-.95-10.28-2.34-21.11-8.58-29.72-8.4-11.6-21.4-18.3-35.9-17.67-10.41.45-23.03,3.35-32.02,8.88-7.54,4.64-12.53,11.99-13.7,20.75-.34,2.52-.57,4.73-.52,7.24.02.74-.1,1.73.06,2.45-.04,1.23.04.8.22-1.27.18-3.4,1.53-6.43,4.06-9.09,12.54,3.31,25.07,6.62,37.61,9.93-2.51-9.71-6.45-19.33-14.03-26.22-9-8.19-22.05-11.99-33.97-9.04-11.6,2.86-20.62,11.94-23.59,23.5-1.13,4.39-1.22,9.07-1.2,13.57,0,1.31-.04,2.63-.03,3.94-.2,2.45-.1,1.73.3-2.17-.69,2.26-.4,1.64.86-1.86,13.71,1.79,27.42,3.58,41.12,5.37-1.8-11.35-12.38-21.19-23.14-24.18-12.22-3.39-25.01-.02-34.02,8.88C1.41,43.28-.83,58.55,5.7,70.38c6.12,11.1,17.58,16.9,29.95,17.49s23.03-10.75,22.5-22.5c-.57-12.67-9.89-21.9-22.5-22.5h0Z"/></svg>