<?xml version="1.0" encoding="UTF-8"?><svg id="Layer_1" xmlns="http://www.w3.org/2000/svg" width="557.17" height="347.21" viewBox="0 0 557.17 347.21"><defs><style>.cls-1{fill:#fdfbe0;}</style></defs><path class="cls-1" d="M34.44,173.76c-13.58,4.37-21.48-11.69-18.94-22.98,3.12-13.87,17.18-22.21,30.68-16.21,6.1,2.71,15-3.4,10.26-10.26-7.25-10.51-8.58-26.63-.06-36.96,7.27-8.82,22.16-9.04,28.91.56,4.71,6.69,16.02,2.86,13.71-5.78-2.71-10.16-.21-22.14,7.79-29.37s19.99-6.55,27.72.3c5.68,5.03,14.12.15,12.54-7.3-2.04-9.62,7.13-19.09,16.55-19.27,12.03-.24,22.22,10.43,29.51,18.72,3.49,3.97,11.67,2.2,12.54-3.31,1.88-12.01,9.86-24.41,22.67-26.65,12.29-2.15,24.13,6.99,28.4,18.09,1.35,3.52,4.3,5.9,8.23,5.37,3.38-.46,6.88-3.65,6.5-7.37-1.43-14.15,20.3-12.98,29.43-12.62,12.09.48,23.76,5.89,26.18,18.74,1.16,6.19,10.97,7.45,13.71,1.79,4.61-9.53,14.35-17.4,25.52-15.5,11.09,1.88,18.37,12.22,20.56,22.59,1.08,5.14,9.09,7.72,12.54,3.31,6.6-8.44,17.65-13.59,28.15-9.11s15.78,15.53,16.25,25.96c.28,6.16,6.05,8.7,11.29,6.48,11.3-4.8,27.4-10.98,38.86-3.37,7.31,4.85,13.05,15.7,8.85,24.25-3.07,6.27,1.96,11.99,8.47,11.02,11.92-1.79,23.46,7.79,26.91,18.69,3.82,12.07.46,26.03-9.02,34.53-2.25,2.02-3.04,6.55-1.17,9.09,7.29,9.93,14.43,21.32,14.23,34.08-.13,8.71-5.98,20.38-16.04,19.14-6.16-.76-8.66,6.79-6.48,11.29,4.19,8.63,2.91,20.82-3.83,27.89s-18.54,7.04-25.7.08c-4.81-4.67-12.48-1.13-12.8,5.3-.41,8.18-.82,16.36-1.23,24.55-.18,3.68-.18,7.41-.57,11.08-.34,3.19-.75,4.17-3.74,5.25-10.32,3.72-28.6,7.13-32.87-6.77-2.19-7.13-12.27-7.13-14.46,0-5.1,16.58-21.43,27.58-38.43,28.86-13.79,1.04-32.33-5.77-33.49-21.74-.5-6.91-10.29-10.86-13.98-3.79-7.22,13.85-19.34,24.92-34.74,28.68-7.32,1.79-16.1,2.07-22.65-2.22-5.99-3.92-8.89-11.29-6.77-18.15,2.18-7.04-7.5-12.85-12.54-7.3-9.07,10.01-22.23,21.84-36.92,20.17-11.83-1.35-21.18-12-20.73-23.82.3-7.91-10.04-9.55-13.98-3.79-8.03,11.76-19.57,27.44-35.73,26.13-12.27-.99-19.29-15.78-11.73-25.69-4.32-2.52-8.63-5.05-12.95-7.57-5.9,8.69-18.49,20.58-30.02,14.97-8.01-3.9-12.24-15.56-7.18-23.09,2.28-3.39.63-8.27-2.69-10.26-3.79-2.27-7.87-.55-10.26,2.69-9.27,12.57-26.5,9.23-35.23-1.81-4.49-5.68-7.45-13.2-7.95-20.42-.26-3.7-.2-8.25,2.11-11.38,1.02-1.39,3.56-3.52,5.28-1.98l3.31-12.54c-6.66,1.39-10.26-8.53-11.31-13.23-.89-3.99-1.09-8.06-1.26-12.13-.09-2.05-.29-4.16-.15-6.2-.06-1.08.09-2.13.44-3.16.61-1.05-.24-1.22-2.55-.5l-1.52-11.78c-10.27,12.56-2.65,28.45,3.78,40.97,7.18,13.96,16.46,26.83,27.34,38.14,3.26,3.39,9.52,2.71,11.78-1.52,4.44-8.32,2.86-17.1.07-25.7-3.13-9.65-6.43-19.25-9.64-28.88-6.53-19.56-13.06-39.13-19.6-58.69-4.18,2.43-8.36,4.86-12.54,7.3,34.15,37.5,69.72,73.69,106.64,108.46,5.45,5.13,14.4.05,12.54-7.3-5.9-23.3-13.67-45.98-23.11-68.09l-11.78,9.09c33.87,28.59,69.28,55.33,106.11,79.98,6.83,4.57,13.11-4.08,10.26-10.26-12.29-26.7-24.58-53.41-36.87-80.11l-10.26,10.26c50.46,27.85,100.92,55.7,151.38,83.55,6.4,3.53,14.29-3.69,10.26-10.26-27.35-44.58-54.84-89.5-73.9-138.39l-11.02,8.47c38.68,26.64,77.52,53.34,119.51,74.57,5.38,2.72,13.33-1.87,11.02-8.47-11.57-33.03-24.92-65.41-40-96.99l-11.78,9.09c23.98,23.45,49.77,44.96,77.13,64.36,6.5,4.61,13.52-4.14,10.26-10.26-7.36-13.84-14.72-27.68-22.09-41.51l-10.26,10.26c28.3,17.94,57.74,34.01,88.17,48.03,3.74,1.72,7.98,1.04,10.26-2.69,3.33-5.46,4.84-11.71,4.19-18.09l-7.5,7.5c13.41-.94,26.25,3.29,36.47,12.06,3.94,3.38,11.35,2.64,12.54-3.31,3.24-16.23,6.75-33.85,1.6-50.08-4-12.63-13.05-24.88-26.68-27.68-5.12-1.05-11.33,3.46-9.23,9.23,6.15,16.84,12.29,33.67,18.44,50.51,4.57-1.93,9.14-3.85,13.71-5.78-4.85-10.55-9.7-21.11-14.55-31.66-4.37-9.51-8.05-20.37-15.32-28.14s-17.95-10.19-27.87-12c-11.17-2.04-22.56-2.86-33.89-2.11-9.35.61-20.22,1.24-27.51,7.95s-6.6,16.73-.25,24.01c13,14.91,31.4,26.12,50.05,32.34,24.49,8.17,50.67,6.61,76.01,4.82,8.02-.57,10.68-12.67,1.99-14.73-29.45-6.99-55.17-23.6-74.97-46.34l-9.09,11.78c19.43,9.69,36.14,23.3,50.05,39.93l5.3-12.8c-28.23-3.59-55.2-15.81-77.21-33.73l-9.09,11.78c15.18,7.82,30.36,15.64,45.53,23.46,4.6,2.37,9.26.18,11.02-4.48,8.7-23.04-3.84-54.22-28.64-60.75v14.46c9.83-4,20.7-.64,27.19,7.76,8.4,10.88,6.21,26.9,6.03,39.74-.37,27.77-.02,57.55,15.14,81.9,4.12,6.62,13.36,3.47,13.98-3.79.56-6.57,2.98-13.04,7.21-18.13l-12.8-5.3c1.05,9.46,1.62,18.94,1.72,28.46.07,6.91,10.79,10.9,13.98,3.79,1.12-2.5,2.24-5.01,3.36-7.51-4.57-1.93-9.14-3.85-13.71-5.78-3.44,9.02-6.88,18.04-10.32,27.05-1.66,4.35-3.32,8.71-4.98,13.06-.83,2.18-1.66,4.35-2.49,6.53l-1.42,3.73c-.84,1.11-.34,1.09,1.48-.05l7.5,7.5c-1.54-25.06-3.08-50.12-4.62-75.18-.23-3.7-2.25-5.86-5.51-7.23-7.75-3.27-14.59,3.12-17.5,9.77-3.25,7.43-2.85,16.04-2.54,23.98.58,15.15,3.97,32.69-5,46.09l13.98,3.79c-.23-23.18-.45-46.35-.68-69.53-.17-17.06.81-37.97-13.01-50.5-2.74-2.49-5.85-2.56-9.09-1.17-10.37,4.46-11.89,17.68-11.94,27.54-.07,15.24.15,30.49.23,45.73.15,30.49.3,60.97.46,91.46h15c-3.15-42.82-6.31-85.64-9.46-128.46-.7-9.52-14.98-9.77-15,0-.05,23.59,9.04,45.21,15.75,67.42,5.76,19.06,9.96,41.58.07,60.03l6.48-3.71c-2.48.03-4.97.05-7.45.08l7.23,5.51c-8.34-32.94-12.57-66.74-12.5-100.73.03-15.87,1.58-32.56-4.19-47.71-2.72-7.14-7.26-13.53-9.46-20.85-2.44-8.11-2.09-16.74-1.9-25.11h-15c1.86,34.39,28.34,59.67,34.29,92.75,1.53,8.53,14.59,6.21,14.73-1.99.54-30.85,1.07-61.71,1.61-92.56-4.66,1.26-9.32,2.52-13.98,3.79,13.69,24.18,29.93,46.84,48.49,67.53,3.6,4.02,11.5,2.15,12.54-3.31,7.36-39-7.48-82.46-41.04-105.02-1.26,4.66-2.52,9.32-3.79,13.98,10.73.11,18.95,7.31,23.33,16.68,4.08,8.74,17.02,1.13,12.95-7.57-6.59-14.1-20.56-23.95-36.28-24.11-7.8-.08-9.73,9.98-3.79,13.98,27.62,18.57,40.19,56.04,34.14,88.08,4.18-1.1,8.36-2.21,12.54-3.31-17.72-19.76-33.06-41.4-46.14-64.49-3.73-6.58-13.85-3.53-13.98,3.79-.54,30.85-1.07,61.71-1.61,92.56l14.73-1.99c-2.9-16.11-10.67-30.64-18.24-44.96-7.28-13.75-14.65-27.96-15.51-43.8-.52-9.59-14.78-9.71-15,0-.2,8.55-.28,17.2,1.55,25.61,1.67,7.67,5.58,14.31,8.95,21.29,7.27,15.08,5.01,32.47,5.05,48.67.09,34.62,4.54,69.25,13.04,102.81.8,3.16,3.99,5.54,7.23,5.51,2.48-.03,4.97-.05,7.45-.08s5.23-1.39,6.48-3.71c10.8-20.16,8.9-43.77,3.25-65.2-6.12-23.19-17.07-45.38-17.03-69.81h-15c3.15,42.82,6.31,85.64,9.46,128.46.7,9.51,15.05,9.77,15,0-.14-27.83-.28-55.67-.42-83.5-.07-13.59-.14-27.17-.2-40.76-.03-6.07-.43-12.26.12-18.31.32-3.52.8-7.68,4.32-9.2l-9.09-1.17c11.57,10.49,8.54,31.9,8.67,45.85.21,21.19.41,42.38.62,63.57.08,7.72,9.93,9.83,13.98,3.79,7.76-11.59,8.39-25.73,7.79-39.24-.31-6.93-.89-13.86-.88-20.81,0-3.03-.09-6.24.56-9.22.27-1.22.81-2.11,1.21-3.24.21-.59.55-1.05,1.05-1.39-2.96.06-3.5.37-1.63.94l-5.51-7.23c1.54,25.06,3.08,50.12,4.62,75.18.26,4.29,3.24,7.17,7.5,7.5,11.89.91,15.17-16.69,18.32-24.96,4.63-12.13,9.26-24.26,13.88-36.38,3-7.86-10.24-13.54-13.71-5.78-1.12,2.5-2.24,5.01-3.36,7.51,4.66,1.26,9.32,2.52,13.98,3.79-.09-9.52-.67-19-1.72-28.46-.63-5.69-8.19-10.85-12.8-5.3-6.96,8.37-10.68,17.91-11.61,28.74l13.98-3.79c-16.67-26.77-12.54-59.72-12.94-89.74-.2-15.08-3.56-30.08-15.78-39.99-10.13-8.21-24.24-11.59-36.59-6.56-6.39,2.6-7.81,12.41,0,14.46,17.35,4.57,23.97,26.9,18.16,42.3,3.67-1.49,7.34-2.99,11.02-4.48-15.18-7.82-30.36-15.64-45.53-23.46-7.13-3.67-16.04,6.12-9.09,11.78,25.41,20.7,55.25,33.99,87.81,38.13,7.14.91,8.94-8.46,5.3-12.8-14.63-17.5-32.65-32.09-53.09-42.28-7.69-3.84-14.76,5.27-9.09,11.78,21.36,24.52,49.84,42.65,81.59,50.19l1.99-14.73c-18.71,1.32-37.94,2.91-56.54-.38-16.6-2.93-32.23-9.77-45.57-20.09-3.04-2.35-5.94-4.92-8.71-7.58-1.24-1.19-5.85-4.6-5.44-6.41.36-1.61,4.19-2.69,5.46-3.03,4.32-1.17,9-1.42,13.45-1.68,9.34-.55,18.81-.15,28.04,1.47,7.62,1.34,17.41,2.6,22.7,8.88,6.11,7.25,9.34,17.78,13.26,26.3,4.58,9.97,9.16,19.93,13.74,29.9,3.52,7.65,16.63,2.21,13.71-5.78-6.15-16.84-12.29-33.67-18.44-50.51-3.08,3.08-6.15,6.15-9.23,9.23,9.57,1.97,14.84,11.23,17.01,20.12,3.13,12.82.11,26.54-2.41,39.2,4.18-1.1,8.36-2.21,12.54-3.31-13.14-11.29-29.63-17.68-47.07-16.46-3.72.26-7.93,3.24-7.5,7.5.41,3.99-.04,7.06-2.14,10.52l10.26-2.69c-30.44-14.02-59.87-30.09-88.17-48.03-6.61-4.19-13.63,3.93-10.26,10.26,7.36,13.84,14.72,27.68,22.09,41.51l10.26-10.26c-26.32-18.66-51.02-39.45-74.09-62.01-6.34-6.2-15.36,1.6-11.78,9.09,14.53,30.42,27.34,61.59,38.49,93.41,3.67-2.82,7.34-5.65,11.02-8.47-42-21.23-80.83-47.93-119.51-74.57-5.15-3.55-13.37,2.43-11.02,8.47,19.56,50.17,47.35,96.22,75.41,141.97l10.26-10.26c-50.46-27.85-100.92-55.7-151.38-83.55-6.96-3.84-13.3,3.66-10.26,10.26,12.29,26.7,24.58,53.41,36.87,80.11l10.26-10.26c-35.78-23.94-70.18-49.86-103.08-77.63-6.76-5.71-15.11,1.29-11.78,9.09,8.91,20.88,16.03,42.5,21.6,64.5,4.18-2.43,8.36-4.86,12.54-7.3-36.93-34.77-72.49-70.96-106.64-108.46-4.97-5.46-14.89.23-12.54,7.3,5.91,17.7,11.82,35.4,17.73,53.1,2.9,8.69,5.81,17.39,8.71,26.08,1.95,5.85,7.52,16.37,4.24,22.52l11.78-1.52c-8.43-8.77-15.67-18.46-21.7-29.03-2.91-5.1-5.7-10.38-7.89-15.83-1.24-3.08-4.08-9.91-1.53-13.03,2.74-3.36,3.28-9.58-1.52-11.78-7.75-3.55-15.71.02-18.86,7.88-3.08,7.69-1.63,17.73-.55,25.72,2.1,15.5,12.61,32.82,30.67,29.04,5.41-1.13,7.38-8.88,3.31-12.54-11.16-10.03-26.52-2.82-31.22,10.07s-.68,27.82,6.07,38.72,17.6,19.26,30.68,20.45c13.09,1.19,24.97-5.11,32.61-15.47-4.32-2.52-8.63-5.05-12.95-7.57-9.65,14.37-2.07,35.69,12.56,43.62,19.3,10.45,39.94-4.72,50.54-20.35,2.29-3.38.62-8.28-2.69-10.26-3.83-2.3-7.82-.51-10.26,2.69-12.7,16.64-1.25,42.76,18.26,47.35,24.52,5.77,42.72-14.52,55.11-32.65-4.66-1.26-9.32-2.52-13.98-3.79-.69,18.17,13.36,34.94,31.17,38.23,20.47,3.78,39.06-9.59,52.08-23.96l-12.54-7.3c-3.32,10.69.1,22.75,7.97,30.61,8.38,8.36,20.84,10.89,32.26,9.53,22.17-2.64,41.13-17.31,51.34-36.89l-13.98-3.79c1.71,23.62,24.78,37.92,47.16,36.83,24.27-1.18,46.94-16.31,54.22-39.96h-14.46c2.82,9.17,9.55,15.96,18.54,19.24,10.1,3.7,21.52,1.34,31.49-1.61,10.61-3.13,15.39-10.05,16.09-20.92.75-11.59,1.17-23.21,1.75-34.81l-12.8,5.3c12.6,12.23,33.01,13.16,45.97.86,12.55-11.91,14.44-31.93,7.12-47-2.16,3.76-4.32,7.52-6.48,11.29,15.89,1.96,27.89-13.6,30.39-27.76,3.09-17.52-5.56-34.33-15.63-48.04l-1.17,9.09c13.92-12.48,18.74-34.47,11.91-51.8-7.12-18.04-25.06-29.39-44.4-26.49,2.82,3.67,5.65,7.34,8.47,11.02,7.47-15.22,1.25-33.15-11.9-43.1-16.86-12.77-38.87-5.72-56.34,1.7l11.29,6.48c-.76-16.77-10.05-33.32-26-39.9-15.5-6.39-33.84-.58-44.01,12.44,4.18,1.1,8.36,2.21,12.54,3.31-3.33-15.8-15.86-30.61-32.33-33.29-17.11-2.78-33.75,7.3-41.17,22.62,4.57.6,9.14,1.19,13.71,1.79-3.8-20.2-23.53-29.5-42.37-29.8-9.47-.15-20.19.11-28.86,4.29s-14.82,13.61-13.83,23.37l14.73-1.99c-6.84-17.78-24.09-31.65-43.91-29.03-18.81,2.49-33.23,19.36-36.08,37.6,4.18-1.1,8.36-2.21,12.54-3.31-11.35-12.91-27.62-26.1-46.04-22.49-17.01,3.34-28.66,20.83-25.09,37.63l12.54-7.3c-13.19-11.68-32.8-13.22-46.86-2.04-13.33,10.59-18.01,29.62-13.72,45.7,4.57-1.93,9.14-3.85,13.71-5.78-11.69-16.62-35.6-19.62-50.66-5.48-15.14,14.21-15.47,40.54-4.1,57.02l10.26-10.26c-11.03-4.9-23.02-5.36-33.94.18-10.05,5.1-16.98,15.47-19.07,26.41s.22,22.73,7.93,31.26,19.09,12.2,29.76,8.77c9.15-2.95,5.24-17.44-3.99-14.46h0Z"/><path class="cls-1" d="M428.39,167.42c-1.51,49.34-.14,98.72,4.1,147.9.66,7.65,9.53,9.9,13.98,3.79,19.64-27.02,2.15-60.34-7.96-87.15-12.03-31.9-19.74-65.19-27.44-98.34-1.48-6.38-10.54-7.2-13.71-1.79-6.78,11.56-7.16,25.29-7.5,38.34-.38,14.46.08,28.95,1.36,43.36,2.55,28.74,8.21,57.14,17.08,84.6,2.67,8.29,14.02,6.37,14.73-1.99,2.37-27.91,4.74-55.83,7.1-83.74.71-8.32-13.54-10.39-14.73-1.99-4.69,33.05-9.38,66.1-14.07,99.14h14.46c-11.03-49.01-12.77-100.1-4.93-149.73h-14.46c4.97,31.62,9.95,63.25,14.92,94.87l14.46-3.99c-9.28-27.09-19.63-53.78-30.95-80.09-3.16-7.35-13.66-2.92-13.98,3.79-.23,4.94-.47,9.88-.7,14.82,4.66-1.26,9.32-2.52,13.98-3.79-14.5-26.67-32.51-51.37-53.66-73.16-2.43,4.18-4.86,8.36-7.3,12.54,24.28,9.09,49.18,16.32,74.57,21.58l1.99-14.73c-12.56.27-24.41-3.68-36.25-7.43-12.9-4.09-25.79-8.18-38.69-12.27-25.48-8.08-50.95-16.16-76.43-24.25-7.98-2.53-13.51,9.97-5.78,13.71,25.85,12.52,51.53,25.39,77.02,38.64,23.12,12.02,46.87,23.83,66.34,41.45l5.3-12.8c-46.74-.66-91.9-15.84-130.46-42.07-1.93,4.57-3.85,9.14-5.78,13.71,56.4,9.34,111.06,27.34,162.03,53.2,1.26-4.66,2.52-9.32,3.79-13.98-68.9,6.07-135.52-16.3-202.74-27.31l-3.99,14.46c59.24,8.67,117.31,24.16,173.08,45.91v-14.46c-76.74,11.35-153.07-12.46-229.04-19.56-3.66-.34-6.96,3.11-7.37,6.5-.47,3.96,1.8,6.81,5.37,8.23,60.12,23.85,120.24,47.7,180.37,71.55l1.99-14.73c-76.15,5.65-151.25-10.54-225.2-26.67l-1.99,14.73c16.41.02,32.48,4.93,48.04,9.7,16.51,5.06,32.75,10.95,48.96,16.88,32.4,11.84,64.79,23.7,97.18,35.55l1.99-14.73c-56.5-.02-112.43-13.17-163.22-37.88l-1.79,13.71c14.82-2.29,29.92-1.75,44.85-1.4,14.87.35,29.73.7,44.6,1.06,30.06.71,60.13,1.42,90.19,2.14,7.16.17,10.59-10.68,3.79-13.98-44.53-21.6-89.59-43.67-127-76.65l-7.3,12.54c56.94,8.65,114.24,19.11,172.03,18.64,9.02-.07,9.46-11.69,1.99-14.73-43.29-17.65-86.59-35.29-129.88-52.94-8.31-3.39-12.34,9.21-5.78,13.71,43.48,29.8,86.97,59.61,130.45,89.41,6.23,4.27,14.17-4.1,10.26-10.26,2.81,4.43-2.1,1.42-2.54,2.88.01-.04,1.91,2.99,1.91,2.99,1.61,3.36,2.59,7.21,3.58,10.79,2.18,7.82,3.68,15.83,4.35,23.92s.65,16.43-.1,24.61c-.68,7.37-1.26,16.1-5.9,22.14l11.78-1.52c-9.19-9.53-11.46-23.38-13.75-35.91-2.54-13.9-4.85-27.96-11.93-40.42-2.54-4.47-10.67-5.31-12.95,0-8.04,18.66,24.15,21.56,18.77,40.18-1.81,6.25-7.07,11.2-10.95,16.22-4.79,6.2-8.35,12.94-8.19,20.98.19,9.66,14.69,9.65,15,0,1.26-39.08-14.21-79.49-44.02-105.37l-1.52,11.78c3.71-1.63,10.54,2.47,13.89,3.82,5.17,2.08,10.33,4.16,15.48,6.28,10.27,4.23,20.47,8.61,30.51,13.34,20.35,9.57,39.98,20.61,57.93,34.2,1.93-4.57,3.85-9.14,5.78-13.71-33.39-11.3-65.78-25.18-97.04-41.46l-7.57,12.95c5.25,2.42,10.01,5.42,14.33,9.27l1.52-11.78c-5.23,2.87-15.45-4.12-20.05-6.28-7.43-3.48-14.81-7.07-22.14-10.77-15.28-7.71-30.31-15.88-45.12-24.47-6.16-3.57-14.69,3.88-10.26,10.26,23.49,33.79,48.64,66.42,75.41,97.68,2.43-4.18,4.86-8.36,7.3-12.54-14.61-5.12-27.26-15.01-36.34-27.49-2.82,3.67-5.65,7.34-8.47,11.02,12.9,4.07,24.72,10.38,35.57,18.44,1.26-4.66,2.52-9.32,3.79-13.98-26.27,1.63-52.59,1.17-78.78-1.37-7.41-.72-10.21,10.72-3.79,13.98,18.11,9.17,35.14,20.29,50.73,33.3,2.43-4.18,4.86-8.36,7.3-12.54-13.62-3.46-27.75-3-41.05,1.61,1.93,4.57,3.85,9.14,5.78,13.71,19.51-13.43,42.11-20.73,65.86-20.2l-5.3-12.8c-17.38,13.65-44.08,7.77-56.19-9.96-6.8-9.95-15.05-23.72-29.42-19.4-12.92,3.89-16.38,18.35-21.04,29.19-1.74,4.05-5.06,11.86-10.73,9.26-6.88-3.17-8.79-13.2-10.58-19.68-1.9-6.88-12.86-7.41-14.46,0-3.45,15.9,10.53,27.41,23.87,32.79,7.03,2.83,13.61,1.89,20.14-1.74,2.51-1.4,9.11-7.32,11.54-5.79l-1.52-11.78c-4.21,4.63-8.43,9.27-12.64,13.9h10.61c-16.23-18.53-32.46-37.05-48.69-55.58l-10.61,10.61c13.36,15.22,27.44,31.05,46.32,39.42,3.1,1.37,6.55,1.37,9.09-1.17,2.2-2.2,3.09-6.42,1.17-9.09-26.79-37.17-50.87-76.21-72.2-116.75l-10.26,10.26c30.09,19.03,60.18,38.07,90.27,57.1,8.19,5.18,15.64-7.72,7.57-12.95-14.03-9.09-27.02-19.48-39.07-31.06-6.97-6.7-17.29,3.62-10.61,10.61,13.56,14.18,27.13,28.36,40.69,42.54l5.3-12.8c-19.18-2.51-37.46-11.04-52.29-23.35l-7.3,12.54c11.53,2.69,21.85,8.14,30.62,16.08l7.3-12.54c-32-4.82-62.11-16.78-88.98-34.76-7-4.68-15.63,6.25-9.09,11.78,11.42,9.65,22.84,19.3,34.26,28.95,5.58,4.72,11.17,9.44,16.75,14.15,2.79,2.36,5.63,4.67,8.38,7.08,1.04.92,4.62,3.46,4.29,5.13l9.23-5.24c-29.09-10.67-56.9-24.4-83.24-40.69-2.52,4.32-5.05,8.63-7.57,12.95,31.1,17.73,60.17,38.68,86.91,62.48l7.3-12.54c-23.84-4.58-47.03-12-69.03-22.3-1.93,4.57-3.85,9.14-5.78,13.71,13.41,4.82,25.52,12.48,35.94,22.15l5.3-12.8c-16.72,1.06-32.92-1.56-48.53-7.62l-3.99,14.46c16.83,2.78,32.14,9.5,45.84,19.63,1.26-4.66,2.52-9.32,3.79-13.98-7.04.54-13.76-.42-20.18-3.47-1.93,4.57-3.85,9.14-5.78,13.71,3.1.91,5.38,3.11,6.53,6.15l7.23-9.49c-7.36-.82-14.7,1.3-20.61,5.72l9.09,1.17c-9.65-9.09-15.13-21.59-24.61-30.82-8.9-8.65-22.15-15.09-34.46-9.95-6.46,2.7-7.73,12.22,0,14.46,2.63.76,4.07,2.6,4.87,5.17l5.24-9.23c-3.7.7-7.4,1.41-11.1,2.11-8.19,1.56-6.43,15.84,1.99,14.73.93-.12,2.44.08,3.22-.27,1.35-.62.28.43-.02-.25l-1.02-3.79c.02.15.95-1.35.93-1.34l3.79-1.02-.69.03,3.79,1.02.34.21-9.09,11.78c10.53,5.17,20.74-5.4,18.32-16.18-1.07-4.76-4.27-8.61-8.05-11.52s-8.97-4.57-11.23-8.95l-11.78,9.09c3.26,2.63,6.4,4.54,10.58,5.3,7.41,1.34,12.39-6.69,7.3-12.54-14.88-17.08-30.48-33.49-46.81-49.19-4.9-4.72-12.35-1.09-12.8,5.3-.85,11.95-1.1,23.93-.65,35.91.32,8.66.84,19.8,9.54,24.45,9.98,5.34,18.68-4.39,23.09-12.29,5.16-9.27,7.43-20,6.71-30.56-.66-9.55-15.52-9.69-15,0,.39,7.16.77,14.32,1.16,21.48.04.83.04,9.05.47,9.19,2.55-1.43,3.18-2.12,1.89-2.06-.52,0-1.04-.02-1.57-.05-.6-.21-1.24-.31-1.84-.53-8.48-3.12-13.39-14.81-16.92-22.29l-8.47,11.02c26.84,9.63,54.58,15.94,82.9,19.18,7.01.8,9.13-8.45,5.3-12.8-18.24-20.74-36.48-41.49-54.72-62.23l-10.61,10.61c15.1,15.26,31.82,28.84,49.92,40.4,7.14,4.56,15.35-5.97,9.09-11.78-20.69-19.18-42.08-37.59-64.15-55.17l-9.09,11.78c41.49,25.25,82.97,50.51,124.46,75.76,7.33,4.46,15.05-5.74,9.09-11.78-28.19-28.59-55.05-58.45-80.53-89.47l-9.09,11.78c22.58,11.9,45.16,23.79,67.74,35.69l-2.69-10.26c-.77,1.83.59.42-1.23,1.49-.9.53-2.08.74-3.06,1.11-3,1.13-5.72,2.35-8.14,4.49-4.49,3.97-7.01,9.72-8.56,15.39-3.99,14.6-5.53,30.2-8.11,45.1l13.71-1.79c-5.39-11.13-10.77-22.25-16.16-33.38l-10.26,10.26c6.93,5.23,13.85,10.46,20.78,15.69,6,4.53,14.35-4.29,10.26-10.26-12.28-17.96-23.21-36.81-32.66-56.41-4.82-10-9.25-20.19-13.26-30.54-1.86-4.8-3.63-9.63-5.32-14.49-.55-1.59-2.69-5.46-2.34-7.27.26-1.34,2.65-2.26,3.84-2.96,37.13-21.76,78.3-36.42,120.8-43.17,23.52-3.74,47.46-4.73,71.23-3.37l-3.79-13.98c-50,30.79-100.24,63.05-138.16,108.67-5.16,6.2,1.34,16.48,9.09,11.78,52.04-31.53,104.08-63.07,156.12-94.6l-9.09-11.78c-9.69,10.4-24.1,15.45-36.46,21.9-13.62,7.11-27,14.69-40.11,22.71-26.77,16.38-52.33,34.64-76.73,54.37l11.78,9.09c17.47-30.41,36.55-59.87,57.28-88.17,10.16-13.87,20.71-27.43,31.66-40.68,5.36-6.49,10.81-12.91,16.35-19.24,2.71-3.1,5.39-6.22,8.2-9.23,2.13-2.29,4.92-5.85,8.32-6.1l-6.48-11.29c-4.4,6.99-11.42,11.17-18.3,15.4-6.8,4.18-13.46,8.56-19.95,13.21-13.22,9.49-25.79,19.89-37.54,31.15-24.37,23.35-45.27,50.3-62.29,79.42-3.19,5.45,2.13,13.08,8.47,11.02,42.94-13.94,84.07-33.09,122.47-56.81,6.04-3.73,3.93-14.37-3.79-13.98-40.25,2.06-80.57,2.34-120.84.86l5.3,12.8c16.47-12.83,34.17-24.13,52.69-33.75,8.98-4.66,18.17-8.96,27.56-12.74,4.57-1.84,9.18-3.57,13.82-5.2,2.06-.72,4.21-1.65,6.38-2.03,2.41-.42,1.96.55,1.27-1.3l3.45-8.47c-20.79,9.53-42.89,15.86-65.53,19.07-8.36,1.18-6.38,15.17,1.99,14.73,31.7-1.66,63.41-3.33,95.11-4.99l-1.99-14.73c-32.42,10-65.53,17.52-99.1,22.44-8.8,1.29-5.93,14.21,1.99,14.73,11.14.74,22.26.09,33.26-1.85,8.58-1.51,22.3-3.7,21.81-15.23-.21-4.86-3.67-7.86-7.25-10.59-4.72-3.59-9.48-7.15-14.21-10.73-9.74-7.35-19.48-14.7-29.22-22.05l-3.79,13.98c18.78-.32,37.56-.64,56.34-.96,7.08-.12,10.68-10.5,3.79-13.98-11.43-5.77-22.86-11.53-34.29-17.3l-5.78,13.71c8.3,1.74,16.61,3.47,24.91,5.21,6.67,1.39,13.51-7.36,7.3-12.54-2.58-2.15-5.16-4.3-7.74-6.45l-3.31,12.54c1.34-.47,2.69-.93,4.03-1.4,9.07-3.14,5.17-17.64-3.99-14.46-1.34.47-2.69.93-4.03,1.4-4.85,1.68-7.96,8.66-3.31,12.54,2.58,2.15,5.16,4.3,7.74,6.45l7.3-12.54c-8.3-1.74-16.61-3.47-24.91-5.21-7.88-1.65-13.78,9.67-5.78,13.71,11.43,5.77,22.86,11.53,34.29,17.3,1.26-4.66,2.52-9.32,3.79-13.98-18.78.32-37.56.64-56.34.96-8.01.14-9.45,9.7-3.79,13.98,13.69,10.33,27.38,20.65,41.06,30.99.69.51,1.37,1.03,2.05,1.55,1.44,1.3,1.68,0,.74-3.9-.79-.3-3.16.81-4.15,1.04-4.15.98-8.35,1.77-12.58,2.29-7.95.97-15.97,1.04-23.95.51l1.99,14.73c33.57-4.92,66.68-12.43,99.1-22.44,7.79-2.4,6.76-15.19-1.99-14.73-31.7,1.66-63.41,3.33-95.11,4.99.66,4.91,1.33,9.82,1.99,14.73,24-3.4,47.09-10.48,69.11-20.58,2.77-1.27,4.51-5.61,3.45-8.47-4.54-12.23-16.84-10.42-26.91-6.85-11.83,4.18-23.44,9.04-34.75,14.47-23.19,11.14-44.84,24.99-65.12,40.79-5.49,4.27-.54,12.59,5.3,12.8,40.28,1.48,80.59,1.2,120.84-.86-1.26-4.66-2.52-9.32-3.79-13.98-37.33,23.06-77.14,41.74-118.88,55.3l8.47,11.02c16.97-29.03,37.8-55.59,62.31-78.63,11.7-11,24.16-21.15,37.39-30.25s29.47-16.16,38.38-30.3c2.9-4.6-.82-11.7-6.48-11.29-9.2.67-15.28,6.4-21.17,12.98s-11.89,13.54-17.69,20.44c-11.86,14.13-23.29,28.62-34.3,43.42-22.39,30.07-42.91,61.51-61.6,94.02-4.49,7.81,5.43,14.23,11.78,9.09,24.34-19.69,50-37.72,76.79-53.91,13.14-7.95,26.56-15.45,40.21-22.48,12.68-6.53,26.38-11.95,36.3-22.59,5.67-6.08-1.58-16.33-9.09-11.78-52.04,31.53-104.08,63.07-156.12,94.6l9.09,11.78c37.17-44.71,86.12-76.14,135.12-106.32,6.52-4.02,3.57-13.56-3.79-13.98-46.19-2.63-92.88,4.09-136.51,19.46-22.27,7.84-44.52,17.59-64.63,30.04-4.1,2.54-7.88,5.63-9.23,10.49-1.65,5.93,1.06,12,2.99,17.49,3.93,11.16,8.31,22.15,13.07,32.97,10.81,24.6,23.9,48.16,39.07,70.34l10.26-10.26c-6.93-5.23-13.85-10.46-20.78-15.69s-13.15,4.29-10.26,10.26c5.39,11.13,10.77,22.25,16.16,33.38,2.7,5.57,12.62,4.48,13.71-1.79,2.51-14.5,4.24-29.43,7.75-43.72,1.05-4.26,2.29-8.88,6.58-10.79,5.29-2.36,10.75-3.57,13.25-9.49,1.52-3.6,1.26-8.18-2.69-10.26-22.58-11.9-45.16-23.79-67.74-35.69-7.82-4.12-14.41,5.3-9.09,11.78,25.49,31.02,52.34,60.89,80.53,89.47l9.09-11.78c-41.49-25.25-82.97-50.51-124.46-75.76-7.08-4.31-15.88,6.37-9.09,11.78,22.07,17.58,43.46,35.99,64.15,55.17l9.09-11.78c-17.05-10.9-32.65-23.67-46.88-38.05-6.85-6.93-16.93,3.41-10.61,10.61,18.24,20.74,36.48,41.49,54.72,62.23l5.3-12.8c-26.94-3.08-53.4-9.5-78.91-18.64-6.73-2.41-11.01,5.65-8.47,11.02,6,12.72,14.97,28.38,30.49,30.1,8.74.97,15.65-3.59,15.9-12.74.28-10.12-1.08-20.56-1.62-30.67h-15c.47,6.89-.33,13.77-3.2,20.13-1.21,2.68-2.72,5.53-4.7,7.73-2.85,3.18.36.62.2,1.84.05-.42-.55-1.03-.55-1.49,0-2.75-.94-6.01-1.05-8.83-.16-3.88-.24-7.77-.26-11.65-.03-8.42.28-16.83.87-25.23l-12.8,5.3c16.32,15.7,31.93,32.11,46.81,49.19l7.3-12.54c-1.47-.27-2.77-.48-3.96-1.44-6.48-5.24-15.86,1.16-11.78,9.09,2.63,5.1,7.04,8.25,11.85,11.14,1.61.97,3.66,1.94,4.81,3.5.29.4.77,1.43.96,1.54l.04-.06c-.69.86-.34.69,1.04-.52l3.79,1.02-1.01-.49c-7.85-3.85-14.5,5.18-9.09,11.78,5.98,7.3,15.83.92,17.29-6.58,1.97-10.09-8.7-14.71-17.02-13.62l1.99,14.73c3.7-.7,7.4-1.41,11.1-2.11,3.89-.74,6.37-5.6,5.24-9.23-2.37-7.61-7.59-13.4-15.35-15.65v14.46c9.63-4.02,18.33,3.63,24.08,10.77,6.96,8.64,12.25,18.48,20.39,26.15,2.2,2.07,6.41,3.17,9.09,1.17,4.1-3.06,7.96-4.24,13.04-3.67,4.61.51,8.84-5.24,7.23-9.49-3.05-8.05-8.59-14.16-17-16.63-7.96-2.34-13.6,10-5.78,13.71,8.78,4.16,18.02,6.27,27.76,5.52,7.73-.6,9.8-9.53,3.79-13.98-14.58-10.78-31.51-18.18-49.43-21.15-9.55-1.58-13.03,10.95-3.99,14.46,16.7,6.49,34.63,9.3,52.52,8.16,6.13-.39,10.35-8.12,5.3-12.8-12.4-11.5-26.64-20.28-42.56-26.01-7.92-2.85-13.49,10.1-5.78,13.71,23.19,10.85,47.46,18.98,72.61,23.81,6.77,1.3,13.34-7.15,7.3-12.54-27.67-24.63-57.76-46.47-89.95-64.82-8.41-4.8-15.77,7.88-7.57,12.95,27.45,16.98,56.53,31.1,86.83,42.21,3.62,1.33,8.47-1.5,9.23-5.24,1.51-7.51-1.6-13.65-7.05-18.76-6.38-5.99-13.45-11.4-20.13-17.05-13.45-11.37-26.9-22.73-40.35-34.1l-9.09,11.78c27.81,18.61,59.45,31.28,92.57,36.27,6.69,1.01,13.45-6.96,7.3-12.54-10.64-9.64-23.21-16.67-37.24-19.94-6.73-1.57-13.43,7.45-7.3,12.54,18.21,15.12,39.4,24.67,62.89,27.74,6.84.9,9.35-8.57,5.3-12.8-13.56-14.18-27.13-28.36-40.69-42.54l-10.61,10.61c12.94,12.44,27.03,23.64,42.1,33.4l7.57-12.95c-30.09-19.03-60.18-38.07-90.27-57.1-6.63-4.2-13.6,3.92-10.26,10.26,21.33,40.55,45.41,79.59,72.2,116.75l10.26-10.26c-17.79-7.89-30.7-22.74-43.29-37.07-6.38-7.27-16.94,3.37-10.61,10.61,16.23,18.53,32.46,37.05,48.69,55.58,2.58,2.95,8.01,2.85,10.61,0,4.21-4.63,8.43-9.27,12.64-13.9,3.31-3.64,2.71-9.13-1.52-11.78-10.53-6.6-18.65,2.13-27.76,6.37-6.32,2.94-22.62-6.77-20.91-14.69h-14.46c3.89,14.09,12.49,34.69,31,30.91,15.27-3.12,17.61-19.63,23.53-31.31,1.85-3.65,5.33-10.51,10.1-6.93,5.11,3.84,7.91,10.91,11.84,15.85,8.24,10.36,20.54,17.56,33.6,19.73,15.59,2.58,30.56-1.29,42.97-11.03,5.41-4.25.61-12.67-5.3-12.8-26.18-.58-51.9,7.42-73.43,22.25-6.56,4.52-2.76,16.67,5.78,13.71,10.85-3.76,21.92-4.44,33.07-1.61,6.78,1.72,13.33-7.5,7.3-12.54-16.58-13.84-34.48-25.88-53.76-35.64-1.26,4.66-2.52,9.32-3.79,13.98,26.2,2.55,52.52,3.01,78.78,1.37,7.8-.48,9.71-9.57,3.79-13.98-11.87-8.82-25.05-15.5-39.15-19.95-5.88-1.85-12.38,5.65-8.47,11.02,11.53,15.84,26.74,27.88,45.31,34.38,7.65,2.68,11.75-7.33,7.3-12.54-25.94-30.3-50.3-61.89-73.06-94.64l-10.26,10.26c16.99,9.85,34.29,19.16,51.9,27.85,8.48,4.18,17.01,8.3,25.66,12.13s16.5,6.15,24.89,1.54c4.06-2.23,5.09-8.6,1.52-11.78-5.26-4.69-10.96-8.66-17.36-11.62-8.62-3.98-16.25,8.43-7.57,12.95,32.38,16.87,66.03,31.27,100.62,42.97,3.54,1.2,7.48-1.09,8.85-4.34,1.56-3.7-.04-7.07-3.07-9.37-19.84-15.02-41.72-26.89-64.33-37.16-11.02-5-22.19-9.66-33.39-14.22s-23.09-11.59-35.23-6.25c-4.28,1.88-4.89,8.85-1.52,11.78,27.04,23.47,40.78,59.3,39.63,94.76h15c-.12-6.02,3.93-10.63,7.55-15.07,4.62-5.66,9.37-11.5,11.2-18.74,2.06-8.14.18-16.79-4.42-23.73-2.28-3.43-5.02-6.6-8.18-9.24-1.61-1.35-3.32-2.55-5.02-3.78-.52-.38-1.16-.94-1.7-1.27-1.04-.63-.52-1.25-.57-.65l-1.02,3.79.48-1.11h-12.95c14.12,24.87,7.02,57.61,28.02,79.37,3.7,3.83,8.94,2.18,11.78-1.52,7.47-9.73,7.96-25.23,8.43-37,.53-13.08-.78-26.33-3.7-39.09-2.28-9.95-5.27-25.95-16.27-29.96s-22.05,8.64-15.66,18.71l10.26-10.26c-43.48-29.8-86.97-59.61-130.45-89.41-1.93,4.57-3.85,9.14-5.78,13.71,43.29,17.65,86.59,35.29,129.88,52.94l1.99-14.73c-56.48.46-112.39-9.65-168.04-18.1-6.62-1.01-13.55,7.03-7.3,12.54,38.45,33.89,84.25,56.79,130.03,78.99,1.26-4.66,2.52-9.32,3.79-13.98-30.73-.73-61.45-1.46-92.18-2.18-15.19-.36-30.39-.72-45.58-1.08s-30.64-.36-45.88,2c-6.3.97-7.33,11.01-1.79,13.71,53.2,25.88,111.57,39.9,170.79,39.93,8.83,0,9.69-11.92,1.99-14.73-33.01-12.07-66.01-24.16-99.02-36.22-16.21-5.92-32.46-11.78-48.99-16.78-16.27-4.92-33.04-9.64-50.16-9.67-8.27-.01-10.43,12.89-1.99,14.73,75.17,16.39,151.79,32.95,229.19,27.2,8.71-.65,9.84-11.62,1.99-14.73-60.12-23.85-120.24-47.7-180.37-71.55l-1.99,14.73c77.7,7.26,154.52,30.63,233.03,19.02,3.2-.47,5.51-4.23,5.51-7.23,0-3.53-2.39-6.02-5.51-7.23-55.77-21.76-113.84-37.24-173.08-45.91-4.04-.59-8.01,1-9.23,5.24-1.02,3.57,1.25,8.57,5.24,9.23,68.48,11.21,136.53,34.03,206.73,27.84,6.78-.6,11-10.32,3.79-13.98-52.12-26.44-107.94-45.16-165.61-54.71-8.3-1.37-13.08,8.74-5.78,13.71,40.66,27.66,88.79,43.43,138.03,44.12,6.29.09,10.17-8.4,5.3-12.8-20-18.1-43.88-30.52-67.64-42.89-26.06-13.57-52.32-26.74-78.76-39.55l-5.78,13.71c26.11,8.28,52.21,16.56,78.32,24.84,12.9,4.09,25.79,8.19,38.69,12.27,12.48,3.95,25.13,7.65,38.35,7.37,8.16-.18,10.55-12.96,1.99-14.73-25.39-5.26-50.29-12.49-74.57-21.58-7.33-2.75-12.18,7.5-7.3,12.54,20.31,20.92,37.39,44.52,51.31,70.12,3.71,6.83,13.64,3.32,13.98-3.79.23-4.94.47-9.88.7-14.82-4.66,1.26-9.32,2.52-13.98,3.79,10.81,25.11,20.58,50.65,29.44,76.5,3.18,9.29,15.95,5.44,14.46-3.99-4.97-31.62-9.95-63.25-14.92-94.87-1.13-7.16-13.33-7.16-14.46,0-8.28,52.43-6.73,105.9,4.93,157.71,1.54,6.84,13.41,7.46,14.46,0,4.69-33.05,9.38-66.1,14.07-99.14l-14.73-1.99c-2.37,27.91-4.74,55.83-7.1,83.74l14.73-1.99c-8.25-25.57-13.85-51.98-16.37-78.74-1.24-13.15-1.79-26.37-1.64-39.57.13-11.89-.67-25.82,5.55-36.43-4.57-.6-9.14-1.19-13.71-1.79,7.28,31.32,14.56,62.76,25.49,93.05,8.6,23.83,29.11,56.55,11.42,80.88l13.98,3.79c-4.25-49.18-5.61-98.56-4.1-147.9.3-9.66-14.7-9.65-15,0h0Z"/><path class="cls-1" d="M211.28,31.44c-9.56-5.69-19.11-11.37-28.67-17.06l-5.78,13.71c8.22,3.19,16.45,6.38,24.67,9.57,3.8,1.48,8.19-1.63,9.23-5.24,1.21-4.23-1.48-7.77-5.24-9.23-8.22-3.19-16.45-6.38-24.67-9.57s-12.88,9.48-5.78,13.71c9.56,5.69,19.11,11.37,28.67,17.06,8.32,4.95,15.87-8.02,7.57-12.95h0Z"/><path class="cls-1" d="M200.59,34.02c20.01-4.53,35.52,8.93,51.1,19.34,8.05,5.38,15.57-7.61,7.57-12.95-9.65-6.45-19.16-13.88-29.94-18.35-10.46-4.34-21.71-4.99-32.71-2.5-9.41,2.13-5.43,16.59,3.99,14.46h0Z"/><path class="cls-1" d="M294.5,42.7c26.27.85,50.1,13.12,72.63,25.58,23.51,13,46.91,27.1,73.13,33.93,4.53,1.18,9.72-2.27,9.49-7.23-.96-21.06-13.05-41.79-33.14-49.78-11.75-4.67-24.51-3.34-36.86-3.43-6.39-.05-12.75-.64-18.98-2.09-1.81-.42-4.51-.75-5.94-2.09-1.59-1.48-1.5-2.34-.7-3.45l-8.47,3.45c28.31,8.89,54.66,22.69,78.49,40.33,1.26-4.66,2.52-9.32,3.79-13.98-26.46.18-51.86-7.57-76.95-15.15-12.84-3.88-25.68-7.76-38.52-11.64-6.26-1.89-12.53-3.78-18.79-5.68-2.55-.77-5.17-1.36-7.44-2.83-.84-.55-1.35-1.11-2.15-1.73-.64-.51-.23.03-.07-.57-3.08,1.75-6.15,3.49-9.23,5.24,34.47,5.07,63.23,26.52,88.76,48.93,26.67,23.42,51.88,49.2,83.06,66.74,1.93-4.57,3.85-9.14,5.78-13.71-70.27-24.67-140.54-49.34-210.81-74.01l-1.99,14.73c59.21-2.08,115.99,17.55,171.19,36.61l3.99-14.46c-45.6-13.71-89.44-32.43-131-55.67l-5.78,13.71c27.55,9.92,53.59,23.47,77.81,39.91l3.79-13.98c-22.98,1.1-44.86-8.15-66.71-13.93-21.85-5.78-44.05-10.09-66.45-13.07-10.32-1.37-21.37-3.51-31.8-3.01-10.23.48-17.44,6.21-22.19,15.02-5.29,9.82-9.47,20.38-14.11,30.53s-9.61,21.01-14.41,31.51c-11.12,24.31-22.23,48.62-33.35,72.93,4.57,1.93,9.14,3.85,13.71,5.78,20.49-60.47,46.42-118.96,77.66-174.64-4.32-2.52-8.63-5.05-12.95-7.57l-34.56,71.94c-5.54,11.52-10.97,23.1-16.64,34.56-5.13,10.39-10.7,20.65-18.85,29.01l12.8,5.3c-2.35-20.83-4.71-41.65-7.06-62.48-.75-6.65-10.26-11.13-13.98-3.79-14.91,29.48-22.28,62.25-21.69,95.28l14.73-1.99c-2.08-7.54,1.57-15.44.89-23.15s-4.19-15.25-11.91-17.77c-8.47-2.76-19.34.08-27.97.88-9.93.92-19.86,1.84-29.78,2.77l7.23,9.49c.62-3.99,1.23-7.99,1.85-11.98l-14.73-1.99c-.45,4.03-3.33,6.99-7.18,7.77l9.23,5.24c-1-3.26-2.83-7.99-1.39-11.38,1.23-2.89,5.22-4.78,7.44-6.81,5.63-5.17,9.37-12.09,12.49-18.97s5.75-14.54,10.28-20.85c3.36-4.69,8.8-10.5,15.13-8.93l-5.51-7.23c-.35,6.45-5.3,11.31-9.58,15.66-5.33,5.42-10.37,10.88-14.71,17.16-8.79,12.7-14.53,27.55-17.09,42.75-.67,3.97,1,8.1,5.24,9.23,10.42,2.76,16.89-6.32,20.45-14.76,4-9.5,8.55-18.68,14.1-27.38,10.65-16.71,24.51-31.43,40.87-42.65-3.67-2.82-7.34-5.65-11.02-8.47-3.85,12.47-13.36,22.19-20.76,32.63-7.97,11.24-14.94,23.19-20.89,35.61-12.09,25.23-20.17,52.17-23.93,79.89-1.27,9.36,11.24,13.38,14.46,3.99,14.85-43.24,36.89-84.12,65.68-119.69-4.18-1.1-8.36-2.21-12.54-3.31.79,3.97-4.45,9.22-6.48,12.28-2.8,4.22-5.41,8.56-7.84,13.01-5.21,9.56-9.57,19.62-13.11,29.92-7.08,20.6-10.59,42.42-10.69,64.19-.03,6.98,10.81,10.82,13.98,3.79,26.59-58.98,57.87-115.78,93.73-169.64l-13.98-3.79c1.06,11.67-8.07,21.27-13.87,30.55-6.54,10.48-12.2,21.47-17.05,32.82-9.99,23.36-16.3,47.79-19.33,73l14.73-1.99c-4.26-24.03,8.78-46.95,20.38-66.93,11.85-20.41,23.39-41.67,23.72-65.88.05-3.38-2.38-6.26-5.51-7.23-28.62-8.93-55.32,17.61-56.59,45.12-.35,7.48,10.43,10.15,13.98,3.79,6.61-11.88,13.22-23.75,19.83-35.63,3.65-6.55-3.67-13.99-10.26-10.26-7.21,4.08-13.18,10.29-16.98,17.66s-7.71,18.31-3.37,26.05c5.1,9.11,15.7,6.61,21.15-.56,2.68-3.52,4.13-7.69,5.85-11.73,2.19-5.16,4.38-10.32,6.57-15.48,2.59-6.09-1.63-12.34-8.47-11.02-10.57,2.05-21.13,4.09-31.7,6.14,3.16,2.41,6.33,4.82,9.49,7.23,1.04-15.33,22.58-14.62,33.26-16.27,15.24-2.36,29.08-9.7,40.59-19.81,5.75-5.05-.36-14.49-7.3-12.54-8.51,2.39-17.16,4.26-25.94,5.31l5.3,12.8c4.51-3.67,12.36,2.66,15.58,5.43,6.38,5.49,12.02,12.14,17.54,18.46,11.4,13.05,21.73,26.95,31.13,41.51l11.78-9.09c-13.16-16.73-30.47-29.42-50.41-36.86-6.87-2.56-13.02,7.85-7.3,12.54,19.17,15.7,36.53,33.61,51.47,53.38l10.26-10.26c-16.61-12.29-32.39-25.65-47.4-39.85-6.31-5.97-15.6,1.52-11.78,9.09,5.72,11.31,12.77,21.86,21.06,31.46,4.11,4.76,8.54,9.24,13.28,13.39,4.26,3.73,9.31,9.02,15.29,9.36,6.35.36,10.56-4.33,12.65-9.82,2.38-6.27,3.8-13.03,5.62-19.48,4.05-14.39,8.11-28.77,12.16-43.16.85-3.02-.52-7.01-3.45-8.47-16.38-8.19-34.69-13.88-53.12-14.32-18.19-.44-30.88,9.83-39.42,25.16-17.52,31.46-22.72,68.59-25.13,103.99-1.22,18-2.37,36.32-.48,54.32.95,9.07,2.55,18.1,5.58,26.72,2.57,7.31,6.02,15.41,13.88,18.27,7.19,2.61,15.16-.35,20.22-5.79,5.6-6.04,7.33-14.5,7.56-22.49.52-17.53-3.39-35.91-9.79-52.17-1.93-4.9-4.06-9.73-6.5-14.4-1.99-3.82-4.19-7.86-8.52-9.35-5.05-1.73-10.43.81-15.18,2.44-4.83,1.65-9.62,3.42-14.36,5.3-19.5,7.73-38.22,17.18-56,28.31l10.26,2.69c-9.29-12.17-5.88-28.67,2.53-40.34,9.67-13.41,25.54-22.83,40.03-30.11s33.99-16.44,49.77-9.68c7.31,3.13,13.26,8.91,19,14.23,6.74,6.25,13.6,12.37,20.69,18.22,27.5,22.7,58.18,43.54,91.25,57.22,31,12.83,68.25,13.6,92.17-13.29,22.12-24.86,27.28-59.47,43.25-87.87l-11.78,1.52c33.68,32.66,42.26,87.02,24.9,129.84-1.32,3.27.96,6.66,3.45,8.47,7.21,5.26,15.53.14,20.43-5.68,6.42-7.63,12.34-15.77,18.48-23.62,12.32-15.75,24.64-31.5,36.96-47.24-4.18-1.1-8.36-2.21-12.54-3.31,2.1,5.94,4.2,11.88,6.31,17.82,2.75,7.78,14.57,6.8,14.73-1.99.22-12.3-.21-24.59-1.41-36.83-1.06-10.77-1.73-22.64-5.56-32.86-3.05-8.12-8.81-17.06-18.48-17.3-6.03-.15-8.92,3.61-12.65,7.73-4.45,4.92-8.89,9.83-13.34,14.75-34.02,37.62-68.03,75.24-102.05,112.86-4,4.43-8,8.85-12.01,13.28s-7.63,9.14-12.23,12.68c-8.32,6.4-21.45,5.57-31.43,6.22-21.04,1.38-42.84.49-60.89-11.64-18.09-12.16-23.34-32.58-25.68-53.1-1.3-11.38-2.63-23.37.06-34.65,2.42-10.13,8.13-18.98,14.8-26.84,16-18.83,34.96-35.77,54.76-50.49,9.73-7.23,19.81-13.99,30.22-20.21,4.24-2.53,11.7-8.26,17.04-6.37,2.44.86,4.74,4.12,3.3,6.56l4.48-3.45c-18.93,2.56-37.87,5.11-56.8,7.67-4.01.54-6.23,5.7-5.24,9.23,1.21,4.33,5.18,5.78,9.23,5.24,14.36-1.94,28.73-3.88,43.09-5.82,6.34-.86,15.31.03,18.82-6.35,2.69-4.9,2.29-10.82.12-15.8-12.3-28.18-47.48-.81-62.65,9.76-21.15,14.74-40.83,31.59-58.6,50.25-8.51,8.93-17,18.48-22.32,29.72-5.79,12.23-7.28,25.3-6.48,38.71,1.47,24.76,5.11,51.99,23.58,70.23,17.51,17.3,42.09,23.04,66.02,22.87,6.27-.05,12.53-.44,18.78-.93,7.05-.56,14.45-.8,21.36-2.45,13.12-3.13,21.32-13.86,29.94-23.38,19.56-21.64,39.13-43.27,58.69-64.91,21.79-24.1,43.58-48.19,65.36-72.29.27-.3,4.07-4.35,4-4.43-1.63.68-2.22.77-1.76.28h.11c.16-.44,3.63,4.73,3.77,5.03,2.76,5.74,3.41,12.5,4.28,18.72,2.25,15.99,3.05,32.17,2.76,48.31l14.73-1.99c-2.1-5.94-4.2-11.88-6.31-17.82-1.66-4.7-8.76-8.14-12.54-3.31-10.27,13.12-20.54,26.25-30.8,39.37-4.93,6.3-9.86,12.6-14.79,18.9-2.46,3.15-4.93,6.3-7.39,9.45-1.27,1.63-2.47,3.36-3.93,4.83-.42.46-.85.89-1.31,1.31-1.78.9-1.61,1.02.52.34l3.45,8.47c19.28-47.56,8.41-108.4-28.76-144.43-3.41-3.31-9.38-2.76-11.78,1.52-14.5,25.78-19.79,56.58-37.46,80.6-9.26,12.58-22.99,20.71-38.67,21.96-17.95,1.43-35.27-4.58-51.17-12.37-33-16.16-63.6-37.59-90.79-62.24-13.13-11.9-25.77-25.08-44.59-26.06-18.16-.94-37.29,7.95-52.88,16.4-16.44,8.91-33.51,20.55-43.21,36.97-8.99,15.22-11.16,36.77.07,51.49,2.4,3.14,6.48,5.05,10.26,2.69,12.87-8.05,26.23-15.3,40.06-21.56,6.81-3.08,13.75-5.88,20.77-8.44,3.38-1.23,6.78-2.41,10.2-3.52.74-.24,1.92-.41,2.56-.83-1.3.84-1.35-2.38-1.28-.01.04,1.43,2.13,4.03,2.77,5.36,6.29,12.89,10.37,27.19,11.94,41.45.73,6.6,1.55,13.87.08,20.42-.58,2.61-3.39,10.13-7.44,8.03-1.79-.93-2.84-4.59-3.5-6.32-1.34-3.52-2.41-7.15-3.29-10.81-1.7-7.07-2.58-14.25-2.97-21.5-.83-15.13.04-30.37,1.05-45.47,1.94-29.12,5.86-59.01,17.6-85.99,5.52-12.69,12.93-28.37,28.68-29.03,16.64-.7,34.16,4.9,48.87,12.25l-3.45-8.47c-3.17,11.26-6.34,22.52-9.52,33.78-1.59,5.63-3.17,11.26-4.76,16.89-.79,2.81-1.57,5.64-2.38,8.44-.09.31-.93,2.31-.8,2.61-.39.74.04.74,1.29-.01,1.72-.07,1.89-.42.5-1.06-.93-1.52-3.62-2.96-4.99-4.15-1.84-1.61-3.64-3.28-5.39-4.99-3.53-3.46-6.88-7.11-10.02-10.93-6.53-7.93-11.95-16.74-16.58-25.89l-11.78,9.09c15.94,15.09,32.79,29.14,50.44,42.2,5.89,4.36,14.72-4.37,10.26-10.26-15.76-20.84-33.59-39.85-53.82-56.42l-7.3,12.54c17.53,6.53,32.29,18.38,43.79,33,5.26,6.69,16.36-1.99,11.78-9.09-11.72-18.14-24.89-35.37-39.51-51.28-11.87-12.91-30.51-31.63-48.31-17.17-4.82,3.91-1.02,13.56,5.3,12.8,10.14-1.22,20.09-3.08,29.93-5.85l-7.3-12.54c-6.05,5.31-13.02,9.73-20.6,12.52-8.33,3.07-16.84,3.65-25.55,4.87-16.15,2.26-30.91,11.71-32.09,29.3-.35,5.21,5.05,8.09,9.49,7.23,10.57-2.05,21.13-4.09,31.7-6.14l-8.47-11.02c-2.43,5.73-4.87,11.47-7.3,17.2-1,2.36-1.88,4.8-3.12,7.04-.21.38-1.81,2.24-1.75,2.46l4.77,1.48c-.05-.66-.01-1.31.11-1.95,1.41-4.53,2.21-8.51,4.85-12.58,2.48-3.84,5.79-6.81,9.74-9.05l-10.26-10.26c-6.61,11.88-13.22,23.75-19.83,35.63,4.66,1.26,9.32,2.52,13.98,3.79.84-18.14,18.65-36.57,37.61-30.66l-5.51-7.23c-.33,24.46-14.35,45.2-25.97,65.75-12.3,21.75-22.1,45.66-17.59,71.05.65,3.66,4.85,5.83,8.23,5.37,3.97-.54,6.05-3.6,6.5-7.37,2.96-24.68,9.71-49.17,20.08-71.77,5.01-10.93,10.85-21.48,17.48-31.51s13.84-20.48,12.69-33.1c-.67-7.39-9.69-10.23-13.98-3.79-35.86,53.86-67.15,110.65-93.73,169.64l13.98,3.79c.1-22.25,4.09-44.21,11.9-65.05,3.76-10.02,8.51-19.67,14.08-28.8,5.7-9.35,13.95-17.75,11.61-29.52-1.04-5.24-9.06-7.6-12.54-3.31-30.51,37.69-53.8,80.47-69.54,126.31l14.46,3.99c3.73-27.5,11.57-54.47,23.91-79.36,5.99-12.08,12.95-23.68,20.86-34.59s16.74-20.99,20.81-34.18c1.85-6-5.58-12.2-11.02-8.47-15.5,10.63-28.81,23.72-39.95,38.84-5.54,7.52-10.44,15.5-14.64,23.84-2.12,4.2-4.03,8.48-5.83,12.82-.77,1.86-1.54,3.7-2.57,5.44-.45.76-1.22,1.48-1.61,2.22-.56,1.07-.23-.14.74.11l5.24,9.23c2.61-15.48,8.48-30.45,18.27-42.84s22.76-20.25,23.64-36.71c.17-3.19-2.44-6.47-5.51-7.23-21.88-5.42-33.88,17.36-41.09,33.83-1.84,4.2-3.74,8.41-6.16,12.32-2.54,4.1-5.79,6.85-9.49,9.86-9.32,7.58-8.9,18.8-5.66,29.38,1.24,4.07,5.15,6.06,9.23,5.24,10.79-2.19,17.04-11.88,18.19-22.24.92-8.32-13.44-10.35-14.73-1.99-.62,3.99-1.23,7.99-1.85,11.98-.67,4.33,1.88,9.99,7.23,9.49,16.39-1.52,32.86-3.66,49.3-4.57,2.39-.13,3.69-.3,4.86,1.77s.72,5.22.54,7.39c-.63,7.45-2.44,14.22-.38,21.66,2.23,8.06,14.89,6.58,14.73-1.99-.54-30.35,5.92-60.58,19.64-87.71-4.66-1.26-9.32-2.52-13.98-3.79,2.35,20.83,4.71,41.65,7.06,62.48.69,6.09,7.88,10.36,12.8,5.3,17.33-17.77,26.4-42.81,36.98-64.83,11.81-24.57,23.61-49.14,35.42-73.71,4.13-8.59-8.17-16.1-12.95-7.57-31.86,56.79-58.28,116.56-79.17,178.23-2.69,7.94,10.15,13.56,13.71,5.78,18.67-40.82,37.33-81.64,56-122.45,2.81-6.14,6.07-18.74,14.01-20.04,4.45-.73,9.58.33,14.02.76,5.36.52,10.71,1.12,16.06,1.81,21.69,2.8,43.21,7.1,64.37,12.66,23.48,6.17,46.93,15.9,71.63,14.71,7.62-.37,9.96-9.79,3.79-13.98-25.3-17.17-52.62-31.06-81.39-41.42-8.07-2.9-13.1,9.61-5.78,13.71,42.64,23.84,87.79,43.12,134.58,57.18,9.32,2.8,13.03-11.34,3.99-14.46-56.45-19.49-114.63-39.27-175.17-37.14-8.65.3-9.94,11.94-1.99,14.73,70.27,24.67,140.54,49.34,210.81,74.01,8.09,2.84,13.1-9.59,5.78-13.71-60.78-34.2-102.15-106.4-175.4-117.18-4.01-.59-8.05.94-9.23,5.24-3.95,14.46,10.94,20.81,22.01,24.15,15.34,4.64,30.69,9.27,46.03,13.91,29.43,8.89,59.24,18.74,90.33,18.52,7.99-.05,9.47-9.77,3.79-13.98-24.85-18.4-52.56-32.58-82.07-41.84-3.42-1.07-6.54.8-8.47,3.45-7.58,10.38,1.14,22.75,11.4,26.39,12.48,4.43,26.31,3.72,39.31,3.64,11.85-.07,22.53,1.77,31.05,10.54,7.22,7.43,11.34,17.52,11.81,27.83,3.16-2.41,6.33-4.82,9.49-7.23-52.48-13.66-93.62-58.23-149.75-60.05-9.66-.31-9.64,14.69,0,15h0Z"/><path class="cls-1" d="M306.89,85.11c-.06,20.35-.54,40.74-.16,61.09.18,9.58,2.25,18.17,8.35,25.73,5.27,6.53,12.41,11.77,19.59,16.03,13.36,7.93,34.96,17.61,48.77,6.25,6.75-5.55,12.16-12.89,18.54-18.91,6.95-6.55,14.33-12.58,22.14-18.07l-10.26-2.69c8.8,17.39,17.59,34.78,26.39,52.17l11.78-9.09c-1.39-1.1-2.78-2.19-4.17-3.29-3.2-2.53-7.47-3.07-10.61,0-2.63,2.58-3.17,8.1,0,10.61,1.39,1.1,2.78,2.19,4.17,3.29,6.53,5.15,15.83-1.09,11.78-9.09-8.8-17.39-17.59-34.78-26.39-52.17-1.72-3.41-7.09-4.92-10.26-2.69-13.33,9.37-25.66,20.04-36.64,32.09-2.22,2.43-4.42,5.69-7.34,7.33s-6.9.47-10.06-.32c-7.17-1.79-13.92-4.6-20.27-8.37-5.92-3.52-12.18-7.81-16.32-13.43-4.76-6.45-4.22-14.28-4.2-21.89.05-18.19.11-36.38.16-54.57.03-9.65-14.97-9.67-15,0h0Z"/><path class="cls-1" d="M27.13,182.82c-4.48,2.19-9.35,4.58-12.33,8.73s-3.53,9.31-3.54,14.37.42,10.66,3.26,15.19c2.69,4.29,7.01,7.05,11.43,9.27,8.61,4.31,16.21-8.62,7.57-12.95-1.9-.95-4.37-1.89-5.75-3.59-1.77-2.18-1.52-5.26-1.52-7.92,0-1.64-.32-4.21.66-5.66,1.39-2.04,5.68-3.46,7.78-4.49,8.67-4.24,1.08-17.18-7.57-12.95h0Z"/><path class="cls-1" d="M81.21,244.4l-.55,7.52,12.8-5.3c-14.93-13.02-28.94-27.01-41.97-41.93l-10.61,10.61c19.42,21.8,39.9,42.63,61.37,62.41l5.3-12.8c-12.56.15-24.4-4.66-33.12-13.75-4.53-4.73-8.7-9.2-15.47-10.4s-14.62-.42-21.7-.36c-4.98.05-8.39,4.75-7.23,9.49,2.12,8.72,6.66,16.49,13.23,22.61l5.3-12.8c1.21-.09,1.73,1.92,2.35,1,0,0-.24-2.44-.24-2.52-.15-2.59-.07-5.22-.1-7.82-.07-5.54-.14-11.08-.21-16.61-.15-11.4-.29-22.8-.44-34.21-.12-9.64.59-20.4-4.53-29.02-4.76-8.01-13.95-12.66-23.12-10.23-5.07,1.34-6.43,6.72-4.48,11.02,5.44,12.01,14.11,22.07,22.96,31.71,9.81,10.67,19.68,21.28,29.53,31.91s19.6,20.24,28.4,31.12c7.7,9.53,13.65,21.52,9.26,33.79l5.24-5.24c-2.23.44-4.47.89-6.7,1.33l9.23,5.24c-.9-2.74,2.52-6.05,4.12-8.05,2.74-3.42,5.56-6.77,8.44-10.08,5.37-6.16,10.96-12.14,16.73-17.93,11.77-11.82,24.27-22.88,37.22-33.39,25.81-20.94,53.29-41.09,82.89-56.34,16.62-8.56,34.14-15.05,52.56-18.46-3.16-2.41-6.33-4.82-9.49-7.23.23,7.23-10.99,13.35-15.79,17.39-7.61,6.39-14.94,13.1-21.98,20.11-14.14,14.06-26.99,29.34-38.69,45.47,4.32,2.52,8.63,5.05,12.95,7.57,20.85-41.48,44.78-81.35,71.59-119.26l-12.95-7.57c-17.77,40.44-35.53,80.89-53.3,121.33-1.64,3.74-1.06,8.01,2.69,10.26,3.3,1.98,8.46.92,10.26-2.69,12.47-25.02,27.31-48.87,44.52-70.91-4.18-1.1-8.36-2.21-12.54-3.31,1.78,6.34-1.21,13.54-2.74,19.7-1.85,7.44-3.69,14.87-5.54,22.31-3.61,14.55-7.22,29.1-10.83,43.65l14.46,3.99c3.29-15.75,11.46-29.27,23.79-39.59-4.18-2.43-8.36-4.86-12.54-7.3-4.18,22.47-8.69,44.88-13.53,67.21-2.04,9.41,12.41,13.43,14.46,3.99,3.98-18.29,6.06-42.94-14.37-52.5-7.69-3.6-20.29-3.77-22.97,6.38s2.87,22.5,7.55,30.75l11.78-9.09c-8.86-9.77-17.71-19.55-26.57-29.32-6.52-7.2-16.9,3.38-10.61,10.61,22.37,25.7,45.51,50.72,69.37,75.04l9.09-11.78c-20.3-13.73-42.25-24.69-65.32-32.93-6.47-2.31-11.4,5.64-8.47,11.02,5.07,9.31,10.14,18.63,15.21,27.94l10.26-10.26c-6.04-3.25-12.09-6.5-18.13-9.75-7.76-4.17-14.49,5.35-9.09,11.78,7.67,9.13,15.35,18.26,23.02,27.39l9.09-11.78c-36.21-25.73-68.92-56.14-97.48-90.16l-7.3,12.54c13.14,4.27,26.29,8.53,39.44,12.78,6.93,2.24,10.8-5.52,8.47-11.02-1.6-3.78-3.2-7.56-4.8-11.34s-7.07-4.51-10.26-2.69c-3.89,2.21-4.26,6.55-2.69,10.26s3.2,7.56,4.8,11.34l8.47-11.02c-13.15-4.24-26.3-8.51-39.44-12.78-7.7-2.5-11.75,7.24-7.3,12.54,29.4,35.03,63.24,66.02,100.51,92.5,7.39,5.25,14.2-5.7,9.09-11.78-7.67-9.13-15.35-18.26-23.02-27.39l-9.09,11.78c6.04,3.25,12.09,6.5,18.13,9.75,6.64,3.57,13.89-3.6,10.26-10.26-5.07-9.31-10.14-18.63-15.21-27.94l-8.47,11.02c21.86,7.81,42.52,18.42,61.74,31.42,7.19,4.86,14.93-5.83,9.09-11.78-23.86-24.32-46.99-49.34-69.37-75.04l-10.61,10.61c8.86,9.77,17.71,19.55,26.57,29.32,5.81,6.41,15.92-1.8,11.78-9.09-3.48-6.12-6.69-14-5.77-21.19l-1.02,3.79c-1.68.48-1.62.65.18.51.69.14,1.36.32,2.03.55.92.36,1.84.9,2.63,1.49,2.56,1.92,4.46,4.85,5.53,7.83,2.97,8.27.59,17.73-1.21,25.98l14.46,3.99c4.84-22.34,9.35-44.74,13.53-67.21,1.4-7.54-6.67-12.2-12.54-7.3-14.09,11.78-23.9,28.24-27.65,46.21-1.96,9.38,12.12,13.42,14.46,3.99,3.93-15.84,7.86-31.68,11.79-47.52,1.93-7.76,3.85-15.52,5.78-23.28s3.71-15.07,1.54-22.83c-1.38-4.93-8.93-7.93-12.54-3.31-18.04,23.09-33.79,47.72-46.87,73.94,4.32,2.52,8.63,5.05,12.95,7.57,17.77-40.44,35.53-80.89,53.3-121.33,3.86-8.79-7.3-15.57-12.95-7.57-26.81,37.91-50.74,77.77-71.59,119.26-4.4,8.75,7.33,15.32,12.95,7.57,12.32-16.99,26.2-32.83,41.37-47.33,7.39-7.07,15.1-13.8,23.06-20.22,7.3-5.89,14.41-12.89,14.08-22.99-.17-5.18-4.64-8.13-9.49-7.23-35.55,6.57-67.59,24.62-97.02,44.95-29.8,20.6-58.69,43.09-84.13,68.96-6.96,7.08-13.65,14.43-20,22.07s-14.77,16.2-11.31,26.71c1.34,4.06,5.07,6.06,9.23,5.24s8.81-.91,11.18-4.78c1.75-2.85,2.26-6.77,2.64-10.01.82-7.15-.49-14.42-3.15-21.07-5.87-14.66-17.77-25.93-28.31-37.31-11.51-12.43-23.01-24.87-34.52-37.3-10.36-11.19-21.19-22.12-27.57-36.19l-4.48,11.02c8.16-2.16,8.48,12.44,8.56,17.12.19,11.03.29,22.06.43,33.08s.22,21.5.41,32.25c.14,7.74,3.14,18.22,12.9,17.49,6.1-.46,10.38-8.08,5.3-12.8-4.79-4.46-7.83-9.62-9.37-15.99l-7.23,9.49c3.58-.03,7.16-.07,10.73-.1,3.13-.03,7.03-.72,9.92.71,2.39,1.18,4.1,3.86,5.91,5.75,2.27,2.38,4.77,4.5,7.4,6.48,10.42,7.82,23.33,11.81,36.33,11.66,6.27-.07,10.2-8.29,5.3-12.8-21.47-19.79-41.95-40.61-61.37-62.41-6.45-7.24-16.93,3.37-10.61,10.61,13.03,14.92,27.04,28.91,41.97,41.93,5.05,4.4,12.32,1.32,12.8-5.3l.55-7.52c.7-9.63-14.3-9.59-15,0h0Z"/><path class="cls-1" d="M383.71,218.48c19.23,0,39.43-8.37,53.03-21.97,7.31-6.79,12.48-14.84,15.51-24.14,4.7-8.94,6.85-18.57,6.46-28.9-.87-19.4-7.24-39.51-21.97-53.03-14.67-13.47-32.71-21.97-53.03-21.97-19.23,0-39.43,8.37-53.03,21.97-7.31,6.79-12.48,14.84-15.51,24.14-4.7,8.94-6.85,18.57-6.46,28.9.87,19.4,7.24,39.51,21.97,53.03,14.67,13.47,32.71,21.97,53.03,21.97h0Z"/><path class="cls-1" d="M426.52,111.84c-16.94-13.31-33.93-26.35-52.44-37.42s-37.52-19.78-57.41-27.18c-6.94-2.58-14.06-4.69-21.33-6.12-13.38-2.63-27.42-4.8-41.14-4.74s-27.08,2.23-40.21,4.6c-7.6,1.37-15.08,3.42-22.39,5.91-22.04,7.5-43.36,17.51-63.91,28.43,37.62,21.59,75.24,43.17,112.85,64.76-.17-1.45-.18-2.64-.02-4.1l-2.68,19.94c.15-.89.39-1.75.72-2.59l-7.56,17.92c.58-1.3,1.2-2.42,1.99-3.61-3.91,5.06-7.82,10.12-11.73,15.18,1.51-1.95,3.18-3.56,5.11-5.08l-15.18,11.73c2.02-1.42,4.09-2.6,6.34-3.6l-17.92,7.56c4.84-1.91,9.78-3.12,14.92-3.85-6.65.89-13.29,1.79-19.94,2.68,12.22-1.45,24.45-.27,36.7-.14,19.01.19,37.88-3.55,56.65-6.12-6.65.89-13.29,1.79-19.94,2.68,12.2-1.62,24.21-2.3,36.46-.79-6.65-.89-13.29-1.79-19.94-2.68,23.12,3.15,44.73,12.16,66.32,20.56,10.63,4.13,21.32,8.16,32.3,11.27,17.27,4.9,35.32,7.23,53.19,8.45-6.65-.89-13.29-1.79-19.94-2.68,1.07.07,2.08.34,3.04.81l-17.92-7.56,1.01.7-15.18-11.73.83.89c-3.91-5.06-7.82-10.12-11.73-15.18.5.67.91,1.39,1.22,2.17l-7.56-17.92c1.84,5,2.88,10.3,4.6,15.36,3.76,11.07,8.49,21.84,13.33,32.46,4.82,10.57,10.83,20.52,17.82,29.79,14.94-36.72,29.88-73.45,44.82-110.17-4.61.66-9.05,1.79-13.41,3.43-9.86,3.73-20.6,7.64-29.5,13.63-8.59,5.78-17.37,12.13-24.62,19.62s-13.44,16.63-19.63,25.25l11.73-15.18c-.55.74-1.17,1.41-1.88,2,5.06-3.91,10.12-7.82,15.18-11.73l-1.11.73c5.97-2.52,11.94-5.04,17.92-7.56l-1.25.47c6.65-.89,13.29-1.79,19.94-2.68-.99.21-1.98.2-2.96-.05,6.65.89,13.29,1.79,19.94,2.68-19.51-5.66-40.85-8.13-60.49-.81-7.07,2.63-14.86,5.29-21.33,9.34-3.32,2.08-6.98,5.25-9.69,7.34-2.26,1.74-6.41,4.55-9.04,7.12-5.51,5.35-10.48,12.17-14.68,18.52-4.47,6.77-6.87,14.99-9.98,22.41,36.72-14.94,73.45-29.88,110.17-44.82-40.09-24.27-87.98-19.82-132.79-21.1-37.12-1.06-74.21-3.32-111.19-6.72-10.33-.39-19.96,1.76-28.9,6.46-9.3,3.02-17.34,8.19-24.14,15.51-7.31,6.79-12.48,14.84-15.51,24.14-4.7,8.94-6.85,18.57-6.46,28.9.87,19.4,7.24,39.51,21.97,53.03l15.18,11.73c11.7,6.78,24.32,10.2,37.85,10.24,30.76,2.83,61.6,4.87,92.47,6.09,15.11.59,30.22.99,45.34,1.19,14.04.19,28.19-.3,42.14,1.52-6.65-.89-13.29-1.79-19.94-2.68,6.52.96,12.83,2.48,18.94,5l-17.92-7.56c2.51,1.12,4.9,2.37,7.25,3.79,11.7,6.78,24.32,10.2,37.85,10.24,10.33.39,19.96-1.76,28.9-6.46,9.3-3.02,17.34-8.19,24.14-15.51,9.3-9.36,15.72-20.39,19.29-33.1l.5-1.19-7.56,17.92c.77-1.55,1.64-2.95,2.69-4.33l-11.73,15.18c1.12-1.31,2.31-2.47,3.64-3.58-5.06,3.91-10.12,7.82-15.18,11.73,1.75-1.3,3.54-2.36,5.52-3.26l-17.92,7.56c2.02-.8,4.02-1.36,6.17-1.71-6.65.89-13.29,1.79-19.94,2.68,2.16-.24,4.21-.23,6.36.04-6.65-.89-13.29-1.79-19.94-2.68,2.32.44,4.39,1.32,6.62,2.06,3.69,1.15,7.51,1.74,11.44,1.77,3.81.52,7.63,1.03,11.45,1.53,7.33.27,15.11-.83,22.04-3.06,5.74-1.85,14.51-5.39,19.65-8.53l15.18-11.73c.54-.43,1.01-.92,1.43-1.47,6.06-6.4,10.46-13.57,15.56-20.52l-11.73,15.18c3.18-4.09,6.77-7.69,10.83-10.91-5.06,3.91-10.12,7.82-15.18,11.73,4.14-3.11,8.54-5.67,13.29-7.74l-17.92,7.56c4.81-1.94,9.7-3.28,14.84-4.01,12.71-3.56,23.74-9.99,33.1-19.29,7.31-6.79,12.48-14.84,15.51-24.14,4.7-8.94,6.85-18.57,6.46-28.9-.04-13.54-3.46-26.16-10.24-37.85-8.05-10.69-14.69-22.25-19.9-34.58,2.52,5.97,5.04,11.94,7.56,17.92-5.8-14.16-8.27-29.56-15.84-43.03-.41-.73-.79-1.45-1.22-2.17-2.67-4.54-8.79-12.39-12.55-16.07-5.06-3.91-10.12-7.82-15.18-11.73l-1.01-.7c-5.97-2.52-11.94-5.04-17.92-7.56l-1.47-.56c-8.05-2.2-17.17-2.57-25.53-3.2-2.41-.18-4.81-.45-7.21-.77,6.65.89,13.29,1.79,19.94,2.68-29.19-4.15-55.78-17.38-83.35-27.05-19.78-6.94-39.49-10.4-60.41-12.56-22.11-2.29-44.41,2.71-66.2,5.65,6.65-.89,13.29-1.79,19.94-2.68-9.98,1.3-19.84,1.81-29.9,1.49-9.91-.32-19.81-.9-29.69.19-10.35,1.14-21.56,1.92-31.65,5.15-7.71,2.47-15.34,5.89-22.63,9.33-2.02.95-3.86,2.04-5.69,3.31-6.25,4.32-13.17,9.03-18.47,14.62-.66.69-1.22,1.45-1.82,2.19-3.94,4.84-9.46,10.88-12.5,16.34-2.01,3.61-3.43,7.69-5,11.4-1.71,4.04-3.31,7.03-4.35,10.89-1.34,4.93-2.64,16.16-2.9,21.26-.06,1.19-.05,2.22.09,3.43.04,13.54,3.46,26.16,10.24,37.85,6.67,11.27,15.64,20.24,26.91,26.91,23.87,13.97,51.76,12.73,75.71,0,10.11-5.37,20.33-10.52,30.86-15.05l-17.92,7.56c13.76-5.81,27.95-10.42,42.77-12.57-6.65.89-13.29,1.79-19.94,2.68,10.05-1.31,20.06-1.39,30.11-.06-6.65-.89-13.29-1.79-19.94-2.68,11.78,1.76,23.09,5.24,34.09,9.79l-17.92-7.56c24.06,10.24,46.5,24.5,67.19,40.4-5.06-3.91-10.12-7.82-15.18-11.73.98.75,1.95,1.51,2.91,2.28,6.79,7.31,14.84,12.48,24.14,15.51,8.94,4.7,18.57,6.85,28.9,6.46,10.33.39,19.96-1.76,28.9-6.46,9.3-3.02,17.34-8.19,24.14-15.51,13.12-14.29,22.86-33.06,21.97-53.03-.89-6.65-1.79-13.29-2.68-19.94-3.56-12.71-9.99-23.74-19.29-33.1h0Z"/><path class="cls-1" d="M482.42,111.64c11.77,0,23.04-10.35,22.5-22.5-.55-12.19-9.89-22.5-22.5-22.5-11.77,0-23.04,10.35-22.5,22.5.55,12.19,9.89,22.5,22.5,22.5h0Z"/><path class="cls-1" d="M460.46,74.45l-16-18.05c-2.13-2.41-4.17-4.91-6.62-7-2.18-1.86-4.37-3.63-6.9-4.93-1.99-.88-3.99-1.73-6.01-2.55-7.6-3.13-3.94,2.25,10.96,16.13l-3.07,11.36.46-.95c-6.48,3.71-12.95,7.43-19.43,11.14,2.85.16,5.69.32,8.54.49-1.99-14.73-3.99-29.46-5.98-44.2-5.73,2.19-11.56,4.07-17.52,5.54-2.68.66-5.38,1.23-8.09,1.73-1.46.27-3.04.74-4.53.76l2.34-.3c-1.22.15-2.44.28-3.66.4,6.48,3.71,12.95,7.43,19.43,11.14-7.71-10.76-14.91-23.79-26.81-30.42-14.72-8.2-38.41-4.97-45.65,12.14-2.46,5.82-4.02,10.96-2.27,17.34,1.44,5.22,5.47,10.88,10.34,13.45,9.63,5.09,25.89,3.5,30.78-8.07,1.01-2.11.47-1.59-1.62,1.57l-2.61,2.15c-1.47,1.04-3.08,1.58-4.83,1.64-2.17.2-2.33.28-.48.25-1.77.16-3.42-.17-4.94-.99-1.85-.86-1.92-.82-.2.12-4.7-3.17-1.39-.88-.19.31,3.11,3.06-2.55-3.78.17.08.99,1.4,2,2.79,3,4.18,2.14,2.99,4.29,5.98,6.43,8.97,4.36,6.08,11.24,11.99,19.43,11.14,14.92-1.55,29.39-4.37,43.43-9.73,10.57-4.04,17.7-12.9,16.12-24.69-1.53-11.4-10.79-18.87-22.1-19.51-2.85-.16-5.69-.32-8.54-.49-7.31-.42-16.21,4.46-19.43,11.14-4.76,9.9-4.63,20.12,2.24,29.01,2.95,3.82,6.58,6.52,11.03,8.39-.43-.18,6.52,3.23,2.58,1.06-.92-.5-4.93-4.09-2.69-1.63,7.12,7.81,14.07,15.78,21.08,23.69,7.83,8.83,23.94,8.59,31.82,0,8.65-9.43,8.36-22.4,0-31.82h0Z"/><path class="cls-1" d="M336.16,41.99c-14.19-16.86-35.54-26.04-57.28-27.17,1.99,14.73,3.99,29.46,5.98,44.2.98-.16,1.97-.31,2.96-.45l-2.97.39c1.5-.05,3.07-.36,4.57-.49,3.03-.25,6.07-.37,9.11-.23l1.49.09c2.5.25,1.97.17-1.6-.24.08.25,3.91.98,4.19,1.04,3.81.9-2.85-1.78-.81-.33,4.62,3.27-2.74-2.81.69.27l15.91-38.41c-14.78.34-29.55-.29-44.24-1.99-.69-.08-7.13-.69-1.66-.18-1.91-.18-3.82-.56-5.72-.86-3.5-.56-6.99-1.2-10.47-1.86-8.61-1.63-17.45-3.41-26.25-3.34-13.99.11-26.45,4.99-39.19,10.09-5.14,2.05-10.34,4.07-15.74,5.28-2.6.58-4.55-.28.3.14-1.33-.12-2.9.21-4.25.19l-1.42-.05c-2.47-.22-1.89-.14,1.74.25-.06-.23-3.96-1.1-4.24-1.19-8.5-2.85-18.45,1.33-23.65,8.06-5.62,7.27-6.12,16.91-1.76,24.99s8.63,16.93,12.43,25.63c.45,1.03.89,2.05,1.33,3.08,1.79,4.14-.05-.57-.31-.73,1.09.7,2.06,5.01,2.55,6.23,1.89,4.69,3.72,9.39,5.53,14.11,6.71,17.54,13.04,35.23,20.29,52.56,7.71,18.45,16.03,36.66,26.99,53.45,12.08,18.51,26.47,35.93,47.96,43.48,6.92,2.43,15.05,3.32,22.24,1.8,11.88-2.51,20.19-13.56,20.19-25.56,0-7.05-2.79-13.96-4.81-20.61-1.9-6.26-3.8-12.52-5.71-18.77l-41.12,17.34c19.8,35.96,49.61,64.81,79.17,92.71,3.31-12.54,6.62-25.07,9.93-37.61-17.62,5.73-32.19,16.63-42.59,31.98-.97,1.43-1.83,2.92-2.73,4.39-.38.62-.81,1.22-1.17,1.84-1.29,2.2,1.79-2.11,2.45-2.59,1.25-.9,2.52-1.48,4.02-1.91-.78.22-3.05.62.27.16,4.6-.63-2.72-.86,1.72,0,3.56.69.08-.11-.63-.32-.57-.17-1.57-.74-2.15-.72.87-.02,4.37,2.4,1.27.3-.96-.65-2.69-2.26-3.77-2.52.49.12,4,3.24.87.59-.6-.51-1.21-1-1.82-1.5-2.69-2.22-5.43-4.37-8.22-6.47-8.23-6.17-17.92-9.51-28.2-9.97-9.73-.44-19.33,2.52-28.75,4.5-.87.18-1.79.3-2.65.52-2.5.64,1.29-.14,1.57-.14-3.95.07.95.46,1.51.66l4.67,3.49c4.26,4.15,5.71,5.12,4.33,2.9-1.63-4.35-5.23-8.63-8.34-11.92-6.09-6.44-14.9-11.22-23.47-13.28-21.16-5.1-41.72,2.84-58.62,15.41,11.02,4.48,22.03,8.96,33.05,13.45-.44-1.22-.7-2.5-1.14-3.7-.87-2.41-.04,4.7.17.63-.02-.78,0-1.55.07-2.32.13-1.74.03-1.04-.3,2.12.44-.43.56-2.42.75-3.05.22-.76.47-1.51.75-2.24.59-1.58.35-.99-.71,1.75-.23-.53,1.67-3,1.93-3.42.28-.46.57-.91.89-1.34.95-1.35.6-.92-1.04,1.27.38-1.08,1.98-2.26,2.75-3.05,1.93-1.99,4.01-3.73,6.1-5.54s-3.41,2.39.07.01c1.14-.78,2.27-1.58,3.42-2.35,5.06-3.38,10.29-6.53,15.62-9.47s10.35-5.45,15.68-7.87c.58-.26,5.13-2.31,2.13-.98s1.58-.64,2.18-.88c2.72-1.08,5.45-2.11,8.21-3.09,11.59-4.1,23.49-7.2,35.59-9.4,11.61-2.11,19.23-16.83,15.71-27.68-4.13-12.75-15.16-17.58-27.68-15.71-5.82.87-11.65,1.71-17.48,2.52-1.3.18-2.59.36-3.89.53,4.58-.61,1.08-.15.14-.03-3.24.41-6.49.84-9.73,1.24-11.4,1.42-23,3.33-34.51,3.48-1.45.02-2.9-.1-4.34-.08-1.74.03-3.2.86.84.25-1.04.16-6.2-.84-6.66-1.73.09.16,4.25,2.3,1.39.5-.99-.63-2.06-1.29-3.1-1.86-2.6-1.43,3.84,3.82.56.42-.84-.87-1.76-1.66-2.58-2.55-3.06-3.29-.07.68.27.6-.13.03-1.74-2.59-1.64-2.43-.3-.48-3.06-4.99-2.81-5.18-.07.05,1.85,4.98.36.59-.39-1.16-.75-2.33-1.05-3.51s-.55-2.44-.81-3.66c-1-4.68-.16,3.76-.1-1.44.03-2.5-.17-4.99-.06-7.5.05-1.25.2-2.5.25-3.76.25-5.98-.69,3.04.02-.57,1.13-5.75,2.29-11.42,3.97-17.05.68-2.28,1.42-4.54,2.2-6.79.49-1.4,1.01-2.8,1.54-4.19.26-.68,1.65-4.25.53-1.45-1.31,3.28.95-2.1,1-2.22.5-1.08,1.01-2.16,1.53-3.22,1.3-2.67,2.69-5.31,4.14-7.9,2.44-4.34,5.16-8.46,8.01-12.54,1.04-1.49.89-2.75-.52.66.3-.73,1.66-2,2.1-2.5,1.78-2.04,3.66-4.01,5.65-5.86.79-.74,1.63-1.42,2.42-2.16,3.82-3.59-2.86,1.78-.08.03,2.09-1.32,4.08-2.74,6.26-3.92.99-.54,2.01-1.03,3.02-1.53,4.29-2.16-.71.36-.72.27-.02-.6,7.37-2.42,8.05-2.6,2.47-.66,4.96-1.21,7.47-1.68,1.28-.24,2.92-.8,4.21-.72-.6-.04-5.17.59-.89.12,5.7-.62,11.4-1.07,17.13-1.34,11.52-.55,23.06-.45,34.57.3,5.44.35,10.84.94,16.26,1.49,6.18.64-3.11-.5.69.06,1.27.19,2.54.37,3.8.56,3.48.54,6.95,1.13,10.42,1.79,10.68,2.02,21.31,4.54,31.66,7.92,2.21.72,4.41,1.49,6.59,2.3,1.09.41,2.16.84,3.25,1.25,5.29,1.99-2.94-1.46.23.1,4.95,2.44,9.86,4.78,14.55,7.71,1.97,1.23,3.85,2.58,5.76,3.88,4.61,3.13-2.36-2.14.23.17.86.76,1.77,1.47,2.64,2.22,4.13,3.58,8.01,7.44,11.71,11.45,15.12,16.36,28.42,34.54,42.31,51.94,4.29,5.37,8.57,10.75,12.86,16.12,5,6.27,9.42,12.78,17.08,16.01,17.11,7.22,32.76-5.79,45.13-16.35,9.79-8.36,18.02-19.82,21.09-32.46,4-16.51.34-31.95-10.27-45.06-5.58-6.89-17.1-7.81-24.58-4.65-8.12,3.42-13.91,11.55-13.83,20.56.1,11.64,1.3,23.19,3.19,34.68.83,5.06,1.87,10.08,3.13,15.05.61,2.43,1.32,4.83,1.99,7.25.33,1.13.63,2.26.9,3.4.42,2.14.47,2.29.15.44-.22-1.84-.3-1.69-.24.45-.17-1.83.23-3.52,1.2-5.08.17.71-5.15,7.56-1.15,2.21-3.16,4.22-6.53,8.3-9.8,12.44-6.53,8.29-13.06,16.59-19.59,24.88,11.78,9.09,23.56,18.18,35.34,27.27,1.96-3.48,4.07-7.92,6.96-10.74-4.37,4.27.69-.66,1.56-1.63,1.25-1.39,2.54-2.74,3.86-4.06s2.69-2.59,4.09-3.83c.8-.7,1.62-1.4,2.44-2.07,1.91-1.53,1.66-1.34-.76.57,2.19-2.9,7.67-5.13,10.81-6.86-11.29-6.48-22.57-12.95-33.86-19.43.24,5.22.2,10.43-.2,15.64-.1,1.22-.25,2.44-.34,3.67-.25,3.35.69-3.81.08-.51-.5,2.72-.96,5.43-1.56,8.14h43.39c-2.09-5.13-4.18-10.26-6.27-15.39-2.3-5.65-4.86-10.24-10.34-13.45-4.82-2.82-11.93-4.02-17.34-2.27-10.48,3.39-20.47,16.01-15.71,27.68,2.09,5.13,4.18,10.26,6.27,15.39,3.66,8.97,11.06,16.99,21.7,16.52,9.56-.43,19.52-6.62,21.7-16.52,2.8-12.74,4.22-25.86,3.64-38.9-.77-17.13-18.49-27.91-33.86-19.43-18.78,10.36-34.57,26.09-45.1,44.76-5.54,9.82-3.08,22.17,5.8,29.03,8.01,6.19,22.6,7.06,29.54-1.76s13.88-17.62,20.82-26.44c8.37-10.63,19.19-21.16,21.07-35.14,1.71-12.71-3.21-24.36-5.7-36.64-.51-2.51-.96-5.03-1.36-7.56-.37-2.34-1.04-3.68-.13-.68-.35-1.15-.3-2.62-.42-3.82-.57-5.74-.83-11.5-.88-17.27l-38.41,15.91c-3.51-4.34-1.58-1.71-.73-.4,1.67,2.57-1.84-5.3-.5-.75.65,2.2-.63,1.99-.07-1.76-.12.83.13,2.01.12,2.89,0-.16-.24,2.86-.17,2.92-.99-.77,1.02-5.28-.14-.91-.1.39-.91,3.54-1.13,3.52.09,0,2.55-4.89-.3-.1-.25.42-1.77,2.45-1.73,2.65-.26-1.2,2.81-3.15.6-.84-1.83,1.92-3.58,3.83-5.56,5.6-.79.71-1.61,1.38-2.42,2.07-2.18,1.86-.96-.43.77-.57-1.72.14-5.1,3.63-6.55,4.6-1.06.72-2.21,1.37-3.24,2.14-6.06,4.54,23.22,9.33,18.4,1.6-1.36-2.18-3.29-4.13-4.9-6.14-4.08-5.12-8.17-10.23-12.25-15.35-7.35-9.21-14.7-18.42-22.05-27.63-14.45-18.11-28.63-35.86-47.81-49.26-19.04-13.3-42.26-20.58-64.78-25.37-24.46-5.19-49.67-7.85-74.69-7.45s-49.87,2.28-71.33,14.34c-20.27,11.39-34.87,31.62-44.53,52.34-11.3,24.23-18.78,50.81-14.72,77.66,2.02,13.33,8.23,25.68,17.21,35.69,10.41,11.61,24.89,17.28,40.14,18.56,12.75,1.07,26-1.48,38.63-3.03,14.98-1.84,29.94-3.88,44.87-6.11l-11.96-43.39c-28.29,5.14-55.9,15.57-80.63,30.23-13.5,8-26.07,17.13-35.52,29.78s-14.17,32.44-8.4,48.27c2.48,6.79,6.27,11.73,13.03,14.58,6.02,2.54,14.43,3.03,20.02-1.13,2.89-2.15,5.83-4.22,8.91-6.09,1.66-1,3.38-1.87,5.07-2.82.53-.3,3.07-1.25.31-.24-2.95,1.08.57-.18,1.13-.37,1.82-.62,3.66-1.07,5.52-1.52,4.28-1.05-3.82-.02.02.06.86.02,6.45.44,2.56-.11s2.22.8,3.09.98c2.19.44-2.04-.87-2.18-1,.43.39,1.3.65,1.82.94,4.22,2.38-2.19-2.65.36.05.45.47.92,1.02,1.4,1.45,1.65,1.48-1.46-1.68-1.46-1.87.02,1.17,2.04,3.79,2.65,4.77,3.94,6.3,9.68,11.24,16.86,13.43,6.63,2.01,13.08,1.14,19.77.06,3.87-.62,7.67-1.58,11.48-2.45,2.04-.47,4.12-.81,6.15-1.29,2.74-.65-1.65.34-1.62.18.04-.2,3.15-.16,3.47-.19,3.82-.35-1.13.54-.83-.4.04-.11,2.37.59,2.55.6,2.41.21-1.3-.33-1.66-.88.25.38,1.62.84,2.04,1.07,1.23.7,3.13,2.65,4.51,2.99-.13-.03-3.32-2.72-1.48-1.09.98.86,2.02,1.68,3.03,2.5,7.54,6.17,15.35,12.1,25.08,14.3,12.54,2.83,24.97.59,34.74-8.07,3.76-3.34,6.5-7.8,9.11-12.06.63-1.03,3.96-5.86,2.09-3.28s-.28.4.15-.06c.69-.73,1.35-1.49,2.06-2.21,1.08-1.1,3.78-2.72,4.46-4.07-.07.13-3.58,2.49-1.55,1.23,1.07-.66,2.07-1.43,3.14-2.09,1.5-.92,3.05-1.77,4.63-2.54.75-.37,3.73-1.92.76-.39-3.13,1.62,1.04-.24,1.57-.41,15.52-5.05,22.77-25.48,9.93-37.61-13.97-13.19-27.95-26.41-40.87-40.63-3.12-3.43-6.18-6.93-9.15-10.49-1.48-1.78-2.94-3.58-4.39-5.38-1.62-2.01-.87-.78.32.45-.78-.81-1.42-1.87-2.09-2.77-5.86-7.9-11.2-16.16-15.95-24.78-5.41-9.83-18.1-13.42-28.1-9.21s-16.31,15.74-13.03,26.54c1.71,5.63,3.42,11.26,5.14,16.9.76,2.5,1.52,5.01,2.28,7.51.48,1.56.97,3.12,1.43,4.69,2.04,7-2.6-3.71,2.07-10.13,2.69-2.69,5.38-5.38,8.07-8.07-.76.44,10.15-2.64,6.53-2.19-2.57.32,2.31-.19,2.24.27-.02.11-4.42-1.28-5.02-1.46-2.31-.7,1.88.67,1.94.79-.17-.33-1.64-.86-1.99-1.06-1.02-.57-3.41-2.82-4.48-2.86.15,0,3.3,2.81,1.51,1.16-.76-.7-1.58-1.34-2.34-2.04-1.16-1.06-2.27-2.15-3.36-3.28s-2.14-2.3-3.17-3.49c-.51-.59-1.01-1.2-1.52-1.8-2.72-3.17,1.76,2.5.17.27-8.4-11.79-15.83-24.01-22.22-37.01-1.59-3.24-3.13-6.51-4.62-9.8-.69-1.52-1.37-3.05-2.04-4.57-.4-.91-2.66-6.15-1.5-3.46,1.25,2.92-1.1-2.68-1.43-3.5-.63-1.55-1.26-3.11-1.88-4.67-1.45-3.64-2.87-7.3-4.27-10.96-5.22-13.63-10.2-27.36-15.56-40.94-6.67-16.89-13.79-33.66-22.42-49.65-8.47,11.02-16.94,22.03-25.41,33.05,13.92,4.67,29.04,2.36,42.51-2.66,5.59-2.08,11.04-4.5,16.63-6.57,2.89-1.07,5.82-2.07,8.81-2.85,1.48-.39,2.95-.69,4.45-1.01,4.86-1.04-5.7-.06.43.04,1.94.03,3.87-.06,5.81.06,1.17.07,6.95.19,1.75.07,3.44.07,7.21,1.29,10.58,1.91,8.61,1.61,17.29,2.85,25.98,3.91,15.31,1.88,30.73,2.57,46.15,2.22,9.05-.21,17.04-5.49,20.56-13.83s2.03-18.55-4.65-24.58c-17.65-15.91-39.43-15.08-61.4-11.63-11.02,1.73-17.46,14.72-16.12,24.69,1.53,11.36,10.79,18.92,22.1,19.51,1.02.04,2.04.11,3.06.2-3.44-.52-3.91-.58-1.42-.17,1.51.31,3,.61,4.49,1.01,1.74.46,3.4,1.12,5.12,1.63,1.58.6.97.33-1.82-.82.93.42,1.86.86,2.77,1.33,1.37.7,2.7,1.46,4.01,2.27.87.54,1.73,1.1,2.57,1.69,1.97,1.43,1.67,1.18-.89-.74,2.17.14,6.25,6.02,7.58,7.59,7.61,9.04,24.08,8.43,31.82,0,8.83-9.62,8.12-22.18,0-31.82h0Z"/></svg>