<?xml version="1.0" encoding="UTF-8"?><svg id="Layer_2" xmlns="http://www.w3.org/2000/svg" width="167.26mm" height="41.29mm" viewBox="0 0 474.13 117.05"><defs><style>.cls-1{fill:#fdfbe0;}</style></defs><g id="Layer_1-2"><path class="cls-1" d="M64.58,23.41c3.79,8.07,2.3,19.32-5.79,24.02,3.45-2-5.46,1.82-1.35.52,3.82-1.21-5.59.29-1.26.19,3.6-.08-3-.85-4.09-1.1-3.75-.88.23.39,1.45,1.08,2.34,1.32-3.59-3.17-.65-.48,2.08,1.9,4.25,3.72,6.46,5.46,12.77,10.06,27.36,13.67,43.25,9.48,10.44-2.76,19.88-8.49,29.49-13.23.9-.44,1.8-.86,2.7-1.3,4.4-2.13-3.22,1.12-1.08.43,1.94-.63,3.81-1.38,5.82-1.84,3.02-.7,2.67.71-1.83.15.5.06,2.6.12,3.07-.02-1.14.34-6.34-.96-1.96-.11,3.64.71-5.06-2.51-1.44-.61-3.45-8.47-6.89-16.94-10.34-25.41-5.87,22.19,12.51,40.49,33.4,43.3,9.1,1.22,18.3-.16,26.84-3.52,4.39-1.73,8.72-3.64,13.02-5.59.76-.34,1.52-.69,2.28-1.03,3.99-1.84-.38.36-.79.3,1.14.18,3.87-1.4,5.06-1.75,1.51-.44,3.05-.69,4.56-1.08,2.41-.62-1.97.36-2.13.28.38.2,1.84-.1,2.3-.1s1.91.25,2.27.04c-.25.15-4.51-1.08-2.33-.3.3.11,1.82.64,2.1.55-.87.29-4.18-2.35-1.5-.47-.71-.5-3.43-3.45-1.07-.61.49.59,1.03,1.15,1.53,1.73,1,1.17,1.95,2.38,3.02,3.5,3.04,3.17,6.77,6.08,10.75,7.99,17.36,8.32,35.78,4.89,52.64-2.78,6.79-3.09,12.85-7.53,19.29-11.25,1.6-.93,3.22-1.82,4.88-2.65.41-.21,1.89-.66,2.12-1.03-2.75,1.1-3.34,1.35-1.77.75.48-.19.97-.37,1.46-.53,1.73-.59,3.47-1.03,5.24-1.45.61-.15,3.31-.75.11-.05-3.45.75,1.11.17,1.78.17-7.23-5.51-14.46-11.01-21.7-16.52,5,20,24.45,33.88,44.07,37.37,22.13,3.94,43.07-1.74,63.76-9.26-9.23-5.24-18.45-10.48-27.68-15.71,5.53,21.11,28.99,34.63,50.14,32.18,6.66-.77,12.24-2.09,18.25-5.24,1.72-.9,3.51-1.95,5.04-3.14,2.81-2.19-.13-.1-1.2.15-3.01.72-6.85.06-9.52-1.43-1.25-.7-4.7-3.19-4.67-4.62,0-.05,1.04,2.03,1.22,2.19-2.53-2.17-1.43-4.3-1.03-1.87.02.1.7,2.65.54,2.77-.67.5-.03-4.94-.35-1.08-.03.37-.28,5.78.12,1.9.34-3.35-.3.18-.39,1-.32,2.81,1.29-4.15,0-.1-1.07,3.38-.07.04.9-1.07-2.61,3,.98-1.11,1.42-.8-.03-.02-2.73,1.63-3.04,1.82-2.42,1.48,4.18-1.04,1.37-.71-1.65.2-2.86,1.77-.53.25l1.57-.25c-1.96-.07-1.91,0,.13.24,3.61,1.59-.23-.86-1.06-.51,1.83-.78,4.01,3.26,1.47.32-.51-.59-3.3-2.16-.24-.05,2.89,1.98.59.44-.1-.25-1.32-1.33-2.71-2.61-4.05-3.93-3.68-3.61-7.67-7.16-12.07-9.85-9.74-5.98-22.49-7.63-33.32-3.82-9.56,3.36-17.03,9.46-24.7,15.89-2.78,2.33,1.34-1.07,1.61-1.2-.67.34-1.38,1.02-2.01,1.46-1.53,1.05-3.2,1.83-4.74,2.84-2.27,1.48,4.66-1.3,2-.86-.75.13-1.66.38-2.37.66-2.64,1.03,6.02-.06,1.93-.29-1.08-.06-4.36-.56-.37.24,4.53.91-1.07-.36-1.93-.62s-1.79-.77-2.67-.94c.31.06,5.23,2.55,2.21.86s-6.25-3.49-9.27-5.47c-15.21-9.96-30.85-19.08-49.81-14.76-9.46,2.16-18.03,8.07-24.43,15.23-2.18,2.44-4.16,5.05-6.23,7.57s-4.81,4.72-6.94,7.25c.3-.36,4.75-2.96,1.92-1.65-.45.21-1.6.75-1.89,1.02.11-.1,5.6-2.2,2.3-1.13-2.15.7-1.63-.88,2.58-.21-.48-.08-1.58.01-2.14.06-3.68.32,3.33.29,2.94.47-.18.08-1.61-.35-1.92-.48-3.47-1.47,4.78,3.04,1.76.76-1.01-.76-2.27-1.52-3.37-2.13,5.54,3.06,2.47,1.96.6.2-2.37-2.21-4.54-4.62-6.73-7.01-5.63-6.16-11.73-12.45-19.23-16.32-13.22-6.83-27.66-6.78-41-.13-9.91,4.94-16.99,13.77-24.69,21.41-2.83,2.8.47-.69,1.05-.71-.17,0-3.73,2.14-3.85,2.29,1.77-2.22,3.69-1.12,1.1-.69,3.39-.26,4.24-.35,2.53-.29-1.79.01-.87.2,2.76.56-.17-.14-2.61-.63-2.5-.68l3.04,1.24c-2.01-1.24-1.49-.76,1.55,1.43-1.43-1.31-1.2-2.35,1.38,1.99,2.8,4.72,2.66,11.17.04,15.94-4.48,3.45-8.96,6.89-13.45,10.34,8.87-2.74,17.86-5.07,26.96-6.91,4.88-.99,9.79-1.79,14.71-2.57,2.61-.37,2.47-.35-.42.04,1.24-.16,2.48-.3,3.72-.44,2.17-.24,4.35-.46,6.52-.66,8.66-.77,17.28-.49,25.91-.9,1.78.17.86.03-2.78-.4.85.14,1.69.3,2.53.5.82.19,1.64.41,2.45.65,2.25.78,1.59.46-1.99-.98,4.46,3.75-2.61-3.22-.15-.53-1.89-1.9-3.18-4.15-3.87-6.74-.32-4.45-.51-5.49-.59-3.1l22.5-22.5c-34.5-4.58-69.18-7.74-103.94-9.39-19.21-.92-38.23-.74-52.76,13.91-2.32,2.34-4.27,5.01-6.3,7.59-.88,1.11-1.75,2.23-2.68,3.3-.23.27-2.79,2.62-2.8,2.94,2.94-2.14,3.43-2.54,1.47-1.2-.56.36-1.14.69-1.73.99-1.53.78-.76.48,2.32-.9-.83.31-1.68.56-2.54.77-4.11,1.41,5.07-.2.92-.27,3.94.71,4.76.76,2.46.17,2.3.56,4.29,1.66,5.99,3.3v31.82c1.5-1.8,3.07-3.53,4.74-5.17.75-.74,1.53-1.45,2.31-2.15.39-.36.79-.7,1.2-1.04,1.27-1.05.79-.71-1.43,1.03,1.19,0,4.25-2.94,5.36-3.62,2.34-1.43,4.76-2.68,7.23-3.86,13.05-6.21,14.38-25.98,4.55-35.34-14.34-13.66-34.19-14.74-52.6-10.34-7.29,1.74-14.15,4.84-21.29,7.1-1.67.53-3.35,1.03-5.05,1.46-1.12.29-2.25.55-3.38.78-2.56.45-2.25.43.92-.04-1.05.68-3.88.1-5.03.15-2.56-.2-2.22-.13,1.01.21-1.11-.23-2.19-.52-3.26-.88l15.71,15.71c-1.08-2.58-.13-3.47-.12,2-.77,4.14-.91,5.32-.44,3.53.49-1.69.05-.69-1.31,3.02,1.66-3.13-3.08,3.48-1.29,1.53,3.15-3.42-2.93,1.8-1.05.64,3.26-2.02-.51.42-1.72.42.34,0,3.1-.77,3.39-.95l-3.67.55c2.4.05,1.55-.13-2.54-.55,3.81.97-4.8-2.67-1.07-.59,10.27,5.75,25.04,2.81,30.78-8.07s2.9-24.65-8.07-30.78c-15.45-8.64-35.03-5.31-47.48,7.12C4.17,55.79,0,64.54,0,73.6c0,5.37,1.5,10.62,3.99,15.34,4.25,8.04,13.05,10.8,21.35,11.91,16.45,2.21,30.7-3.55,45.95-8.59,2.71-.9,5.47-1.65,8.26-2.23,1.02-.21,5.48-1.78,1.99-.41-3.21,1.27.61.05,1.97.02s2.76.09,4.14.12c2.29.06-5.66-1.26-.75.08,4.8,1.31-2.5-1.4-.63-.43,4.66,2.42-3.05-3.04-.02-.16,1.52-11.78,3.04-23.56,4.55-35.34-10.78,5.13-20.86,12.66-28.54,21.83s-9.56,22.98,0,31.82c16.41,15.17,42.03,11.02,56.63-4.73,2.25-2.42,4.16-5.13,6.23-7.71,1.17-1.46,2.37-2.91,3.69-4.24,3.91-3.94-.12.06-.24-.1.81-.54,1.65-1.02,2.53-1.45-2.91,1.17-3.18,1.38-.81.62,4.66-1.45-4.04-.11.55-.19s8.69-.06,13.06.13c36.72,1.58,73.36,4.82,109.79,9.66,5.06.67,12.58-2.96,15.91-6.59,4.18-4.55,6.21-9.7,6.59-15.91,1.05-17.38-14.48-29.88-30.13-32.96-13.5-2.66-27.46-1.52-41.04-.08-15.6,1.65-31.14,4.17-46.33,8.12-10.11,2.63-20.92,4.91-26.45,14.88s-4.17,22.59,2.86,31.69c11.88,15.37,32.58,18.01,49.34,9.4,6.08-3.12,11.51-7.9,16.19-12.84,1.7-1.79,3.31-3.66,5.04-5.42,1.07-1.08,2.2-2.08,3.29-3.13,3.12-3.02-3.86,2.3.97-.52,1.42-.83,4.56-1.8-.58.06,4.62-1.67-4.98-.44.08-.21,5.95.27-5.31-1.14.19.12,3.86.89-5.04-2.78-1.67-.7.86.53,1.74,1.06,2.6,1.58,2.78,1.66-1.96-1.52-2.08-1.66.89,1.03,2.17,1.87,3.15,2.82,7.02,6.77,12.81,14.11,20.83,19.85,10.31,7.39,24.12,9.85,36.3,6.05,11.53-3.59,19.3-11.76,26.66-20.79,1.33-1.64,2.68-3.26,4.13-4.8.78-.82,1.64-1.57,2.43-2.38,2.33-2.39-1.58,1.3-1.93,1.41.56-.17,2.47-1.33,2.87-1.76l-3.3,1.33c.73-.28,1.47-.52,2.22-.72,3.84-1.45-4.63-.11-2.05.16,1.15.12,2.68.13,3.84.07-5.63.32-4.29-.69-1.7.04.88.25,1.74.66,2.63.88,2.73.69-5.39-2.69-1.74-.68,1.02.56,2.07,1.07,3.08,1.64,4.21,2.39,8.16,5.2,12.21,7.85,9.83,6.44,20.58,11.47,32.49,12.03,14.82.7,26.65-6.87,37.66-15.75,1.6-1.29,3.33-2.51,4.82-3.92-5.04,4.79-.54.45,1.3-.64,2.54-1.51,3.38-.39-1.28.24.79-.11,2.54-.58,3.25-.93-3.47,1.73-5.05.43-1.95.52,1.77.1.8-.04-2.9-.4,2.28.68,1.65.33-1.88-1.06.43.39,2.58,1.71,3.14,1.82-3.01-.58-3.53-3.11-1.21-.85,1.64,1.6,3.31,3.17,4.94,4.77,5.86,5.72,12.12,10.33,19.82,13.25,18.29,6.92,39.88-1.84,50.31-17.78,9.68-14.79,10.25-37.9.07-52.64-7.68-11.11-20.84-17.52-34.4-14.01-4.42,1.14-8.54,3.2-12.38,5.63-.6.38-3.45,1.67-3.71,2.28,3.38-1.31,4.25-1.68,2.6-1.11-.57.21-1.15.38-1.74.52-4.11,1.51,5.58-.01,1.16-.08-.82.05-1.64.05-2.46.03-2.42-.17-1.65-.02,2.29.45-.69-.27-1.74-.32-2.43-.49-.8-.2-1.59-.42-2.37-.68-2.22-.81-1.56-.51,1.98.9-.7-.65-2.27-1.27-3.13-1.75-3.35-1.85,3.5,3.69.93.64-2.58-3.06.3-1.15.7,1.12-.39-.61-.74-1.25-1.05-1.91,1.46,3.75,1.86,4.52,1.22,2.3-2.9-11.08-16.32-19.84-27.68-15.71-7.58,2.76-15.19,5.51-23.04,7.43-1.81.44-3.63.85-5.46,1.2-.91.18-1.83.34-2.75.47-1.68.26-1.22.2,1.37-.2-3.13,1.23-8.29.23-11.54.15-1.75-.16-.99-.05,2.3.35-.73-.12-1.46-.25-2.19-.41-1.69-.35-3.36-.79-5.01-1.32l-1.39-.47c-2.28-.87-1.84-.67,1.34.61.02-.09-3.59-1.9-3.77-2-.6-.36-1.19-.73-1.76-1.13-1.4-.97-.79-.48,1.82,1.46-.1-.59-2.28-2.2-2.87-2.76-3.21-3.02,2.58,3.87.48.42-1.09-2.1-.86-1.45.68,1.95-.28-.8-.51-1.61-.69-2.43C331.37,6.91,321.8.08,312.08,0c-11.09-.09-21.12,3.12-30.96,7.94-7.08,3.47-13.45,8.15-20.32,11.97-1.27.71-2.57,1.34-3.87,1.99-2.21,1-1.79.83,1.26-.52-.94.36-1.88.69-2.83,1-1.91.62-3.85,1.03-5.79,1.53-4.66,1.2,4.9.04.19-.05-.95.05-1.89.07-2.84.04-2.49-.17-1.87-.05,1.86.38-.89-.16-1.76-.37-2.62-.63-2.26-.79-1.7-.54,1.69.75-3.61-1.87,3.11,3.77.09.2-1.32-1.56-2.68-3.12-4.04-4.64-16.17-18.02-40.94-15.04-60.97-6.37-2.04.88-4.06,1.8-6.09,2.72-1.01.46-2.03.92-3.05,1.37,2.83-1.16,3.08-1.28.76-.35-1.57.53-3.11,1.14-4.71,1.59-1.06.31-2.13.57-3.22.79,3.25-.33,3.58-.38,1-.16-.93.05-1.87.03-2.8-.05,3.4.54,4.23.61,2.5.22-5.26-2.02,3.26,2.32-.45,0-2.02-1.29-1.58-.87,1.33,1.26-1.67-1.68-1.3-1.07,1.1,1.83-1.16-2.05-.86-1.28.9,2.3.71,2.48.79,4.98.22,7.5,2.45-9.27-1.53-20.78-10.34-25.41-16.02-8.41-31.75-5.38-47.46,1.76-5.19,2.36-10.15,5.19-15.27,7.7-1.27.62-2.59,1.16-3.85,1.81-1.35.69,5.46-2.04.43-.29-1.26.44-2.54.83-3.84,1.16-.54.14-1.09.27-1.64.37-2.35.41-1.45.3,2.71-.33-1.01-.11-2.23.04-3.26.07-3.82.13,6.34,1.14.6-.12-3.74-.82,4.07,2.03.45.02-1.98-1.34-1.61-.98,1.12,1.07-.73-.59-1.45-1.19-2.16-1.81-7.06-6.08-14.03-12.33-23.38-14.47s-21.05-.73-29.25,5.01c-12.87,9.01-16.19,22.82-9.55,36.97,5.01,10.69,21.21,14.25,30.78,8.07,11-7.09,13.44-19.35,8.07-30.78h0Z"/></g></svg>