<?xml version="1.0" encoding="UTF-8"?><svg id="Layer_1" xmlns="http://www.w3.org/2000/svg" width="350" height="230" viewBox="0 0 350 230"><defs><style>.cls-1{font-family:STLibianSC-Regular, 'Libian SC';}.cls-2{fill:#808285;font-size:55px;stroke:#808285;stroke-miterlimit:10;}.cls-3{font-family:BrushScriptMT, 'Brush Script MT';}.cls-4{fill:#fdfbe0;}</style></defs><path class="cls-4" d="M44.02,115.8c-10.14.22-19.57-9.85-19.92-21.27-.35-11.42,8.45-22.2,18.58-22.76,10.13-.56,19.83,9.19,20.48,20.59,8.25-17.51-2.77-43.79,10.68-56.59,8.66-8.25,22.78-4.08,30.37,5.42,7.59,9.5,10.34,22.57,12.81,35.04,8.53-7.73-.06-25.29,6.77-34.93,1.99-2.81,5-4.42,7.91-5.9,16.85-8.57,37.69-15.72,52.78-3.68,13.45,10.73,15.89,31.72,17.15,50.24,8.41-1.47,4-17.12,8.79-25.04,1.86-3.09,5.08-4.72,8.19-6.02,9.05-3.8,18.61-6.09,28.25-6.77,5.57-.4,11.6-.1,16.06,3.68,4.19,3.56,6.17,9.52,7.23,15.31,2.42,13.14,1.18,27.11-3.52,39.44,4.31-11.07,16.9-15.86,27.29-12.88s18.66,12.04,24.55,22.14c4.06,6.95,7.29,14.76,7.81,23.05.85,13.64-6.51,27.46-17.6,33.03-11.09,5.57-25.13,2.5-33.56-7.33,4.06,11.65-.96,25.52-9.64,33.33-8.68,7.81-20.18,10.49-31.28,10.85-3.01.1-6.07.03-8.93-1.03-12.8-4.78-13.73-24.5-12.23-39.59.22,9.5-5.02,18.32-11.76,24.03-6.74,5.71-14.88,8.85-22.87,11.9-6.16,2.35-12.8,4.73-19.05,2.71-7.33-2.37-12.34-10.49-13.81-18.92-1.48-8.43-.01-17.15,1.92-25.46,2.37,8.52-1.69,17.98-7.8,23.67-6.11,5.69-13.91,8.43-21.49,11.03-9.48,3.26-20.97,6.08-28.35-1.38-5.86-5.93-6.46-15.87-6.64-24.74-.11-5.39,4.16-13.11,7.37-9.12,1.1,4.9-.07,10.37-3.01,14.18-2.01,2.6-4.73,4.39-7.54,5.78-20.44,10.09-47.27-2.71-55.07-26.26-1.27-3.84-2.01-8.45.06-11.82,1.19-1.93,3.1-3.11,4.98-4.13,10.51-5.7,22.24-8.52,33.9-8.16,2.63,13.93-2.46,29.33-12.53,37.93,4.8-29.23,11.34-58.1,19.57-86.34,3.11-10.67,10.38-23.66,19.87-20.24-.76,27.75-1.53,55.5-2.29,83.24-.25,9.25-.44,18.9,3.04,27.28,3.48,8.38,11.85,14.97,19.76,12.48,5.58-28.41,7.21-57.8,4.82-86.77-.57-6.87-1.32-14.07.98-20.47s8.9-11.44,14.56-8.79c2.67,1.25,4.59,3.9,6.29,6.52,9.66,14.95,15.81,32.74,17.68,51.12,1.09,10.76.77,21.81,3.57,32.17,2.8,10.36,9.79,20.29,19.33,21.64,4.33-28.38.89-58.2-9.72-84.39-6.63-16.36-16.11-35.02-8.68-50.94,16.47,29.23,32.94,58.46,49.41,87.69,10.21,18.13,23.74,38.4,42.79,38.21,6.44-11.8-4.15-25.51-11.73-36.43-10.28-14.81-15.99-33.58-15.93-52.39,4.8-2.23,10.04,1.37,14.25,4.8,21.1,17.2,42.19,34.4,63.29,51.6"/><path class="cls-4" d="M44.02,93.3c-2.45-.1-1.76.03,2.07.39-1.76-.55-1.7-.46.19.28,4.68,2.88-4.02-2.83.32.19,1.53,1.24,1.59,1.23.18-.04-1.59-1.76-1.31-1.33.82,1.3l-.77-1.2c-1.13-2.14-1-1.64.39,1.49-.26-.68-.48-1.37-.66-2.08-.42-1.71-.38-.92.13,2.38-.08-.74-.11-1.48-.09-2.22.05-1.77-.12-1-.49,2.31-.05.02,1.05-4.26,1.14-4.22-1.39,3.12-1.52,3.61-.4,1.47,1.06-1.59,1.02-1.61-.13-.05-3.41,3.24,4.15-2.24-.14.07-1.58,1.15-1.6,1.21-.06.18,2.13-1.11,1.55-.9-1.74.63,3.88-1.35-5.17-.23-.79.07l-3.38-.5c.86.17,1.71.41,2.53.72-3.08-1.4-3.87-1.67-2.36-.82,1.43.88.84.36-1.76-1.56,0-.08,2.86,2.99,2.95,2.96-2.03-2.71-2.4-3.06-1.11-1.04l.66,1.28c-1.26-3.18-1.52-3.61-.76-1.3.52,2.44.48,1.89-.11-1.62.88,9.6,6.33,19.38,16.52,21.7,8.97,2.04,21.32-1.09,25.41-10.34,5.24-11.84,6.64-23.7,6.51-36.55-.02-2.54-.07-5.07-.04-7.61.03-2.14.82-5.26.37-7.31.3,1.38-1.09,5.38-.13,1.6.25-.98.55-1.98.76-2.97.81-3.76-2.61,4.09-.42.99.5-.72,2.46-3.85.26-.66-1.18,1.46-1.37,1.76-.57.91,1.17-1.14.49-.68-2.03,1.4,3.32-2.07-3.89,1.15-1.35.33,4.2-1.35-.89.64-1.64.03.64-.04,1.28-.03,1.92.02,1.78.11.86-.01-2.77-.37.13.15,4.56,2.49,1.11.08-2.99-2.1.1.24.98.65,3.76,1.72-2.98-3.25-.11-.21l1.01.97c1.23,1.39,1.28,1.36.13-.09-1.13-1.54-1.1-1.48.08.19l.86,1.33c.84,1.37,1.56,2.78,2.3,4.2,1.66,3.18-.67-.47-.34-.92-.12.17,1.52,4.35,1.61,4.65,1.84,5.84,3.04,11.85,4.24,17.85,3.37,16.9,26.32,21.31,37.61,9.93,7.23-7.3,9.97-16.25,10.62-26.26.18-2.79,0-5.59-.08-8.37-.04-1.53-.1-3.06-.08-4.59l.03-1.29c.18-2.45.03-1.7-.45,2.24.22-.47.88-2.96.89-3.48-.5,2.23-1.59,4.13-3.26,5.68l1.02-1.01c-4.57,4.02-.78.91.8.08s3.18-1.61,4.8-2.37,5.69-1.45.38-.28c1.42-.31,3.04-1.21,4.42-1.7,3.17-1.13,6.41-2.08,9.72-2.75.74-.16,1.49-.3,2.24-.42-3.25.39-4.01.51-2.26.35,1.7-.03,3.44-.06,5.14-.13,4.34-.18-4.74-1.28-.26-.08,1.14.3,2.99,1.12,4.14,1.22-3.12-1.38-3.59-1.52-1.4-.41l1.28.77c3.99,2.06-3.27-3.19.45.52.48.47.94.96,1.38,1.46,1.52,1.81,1.17,1.36-1.04-1.37-.13.51,1.89,3.03,2.14,3.48.33.6.65,1.22.94,1.84.73,1.54.45.81-.85-2.19-.17.9,1.12,3.02,1.45,4.02,1.05,3.26,1.84,6.61,2.46,9.98.11.59.68,4.44.74,4.44-.42-3.24-.52-3.99-.31-2.24.09.75.18,1.5.26,2.25.37,3.46.64,6.93.88,10.4,1.02,14.69,13.54,25.43,28.48,21.7,9.82-2.45,16.87-9.97,20.05-19.34,1.8-5.29,2.06-11,2.6-16.53.09-.96.38-4.69.01-.53s.12.57.24-.4c.46-3.63-2.5,4.34-.67,1.41l-1.62,2.24c-2.48,1.79-3,2.25-1.56,1.4,3.48-1.24.46-1.39-.38-.01.37-.61,4.49-1.65,5.17-1.87,3.18-1.04,6.42-1.9,9.69-2.58,1.41-.29,3.02-.82,4.47-.81-5.61-.04.18.06,1.23,0,1.28-.09,2.56-.14,3.85-.12,3.39.05,1.7.2-.63-.26,4.56.91-3.74-2.44.23.04l-2.21-1.54c-1.72-2.44-2.14-2.95-1.25-1.53,1.87,4.5-.1-.25.02-.38-.05.05,1.22,4.44,1.27,4.68.16.71.91,5.46.44,2.04s.09,1.52.13,2.22c.22,3.52.07,6.98-.08,10.49-.19,4.39.62-2.69.08.09-.28,1.42-.49,2.86-.81,4.28-.75,3.39-1.77,6.68-2.97,9.94-3.85,10.51,3.48,22.52,13.03,26.54,9.25,3.9,23.69,1.1,28.1-9.21.16-.38,1.95-3.22,1.81-3.58-2.29,2.76-2.68,3.26-1.15,1.49l.9-.9c2.77-3.24-3.93,2.51-.51.5,3.72-2.18-4.7,1.15-.78.23,4.34-1.01.73.27-1.07-.22.27.07,3.52.03,3.75-.08-3.7-.61-4.66-.74-2.89-.41.61.11,1.22.25,1.82.43,4.41.82-3.8-2.33.08-.07.69.4,3.07,2.23,3.81,2.33-2.33-1.87-2.85-2.27-1.57-1.18.59.49,1.16,1.01,1.71,1.54,1.14,1.08,2.16,2.24,3.23,3.38,3.59,3.82-2.56-3.95.39.43,1.84,2.73,3.6,5.49,5.13,8.41.41.77.8,1.55,1.17,2.34.7,1.49.53,1.04-.51-1.37.76.78,1.4,3.96,1.69,4.99.37,1.33,2.31,6.28.55.93.45,1.38.24,3.39.21,4.8l-.07,1.51c-.24,2.51-.16,2.01.22-1.5.06,0-1.08,4.19-1.12,4.36-.96,4.16,2.36-3.79,0,.12-.75,1.25-1.49,2.54-2.22,3.8-2.1,3.59,3.29-2.9-.08-.06l-1,1.01c-1.8,1.58-1.36,1.31,1.32-.83-.21-.1-3.53,2.35-3.55,2.15-.03-.32,5.28-2.2.08-.31-3.72,1.36,3.72,0,1.15-.07-1.38-.04-5.14-.96-1.89.24,3.71,1.37-.96-.3-1.82-.56-.68-.19-1.35-.41-2.01-.67,2.95,1.31,3.66,1.58,2.14.8-.77-.52-4.4-3.44-1.94-.99,2.7,2.7-1.57-1.78-2-2.26-15.02-16.63-44.27.78-37.61,21.89.31.99.73,4.91.64,1.29s-.05-.09-.03.65c0,.29-.29,3.59-.12,3.67-.52-.26,1.13-5.14.07-1.61-.35,1.16-.76,2.37-1.07,3.55-.65,2.49,2.58-4.59.18-.64-.51.83-1,1.69-1.49,2.53-1.98,3.45,2.32-2.28.46-.52-.85.8-1.64,1.71-2.48,2.52-2.38,2.29.45.28.67-.48-.22.74-2.86,1.76-3.46,2.08-.54.29-3.86,1.89-.95.56,3.14-1.43-1.11.29-1.83.5-1.02.31-2.06.58-3.1.82-.44.1-5.39.78-1.74.47s-1.47.12-1.78.14c-1.06.08-2.12.14-3.18.17l-1.81.03c-2.21-.12-2.41-.08-.61.11,1.49.26,1.6.22.34-.11-1.43-.46-1.17-.33.81.41,1.97.89,2.22.93.74.11l2.84,2.21c-.15-.34-1.19-1.34-1.52-1.54,2.67,1.58,2.85,3.91,1.31,1.38-1.41-2.31.36-2.14.56,1.69-.04-.71-.56-1.62-.76-2.3-.29-1.01-.47-2.03-.75-3.04-.59-2.2.54-3.59.09,1.5.17-1.89-.36-4.1-.41-6-.12-4.19.11-8.38.5-12.56h-45c.02,1.05-.02,2.09-.12,3.14.5-3.4.48-3.87-.07-1.41-.79,2.33-.56,1.99.67-1.03-.43.93-.9,1.85-1.41,2.74-.51.89-1.07,1.75-1.66,2.59,2.01-2.5,2.22-2.84.65-1-.89.83-4.95,5.79-1.44,1.74-1.84,2.13-7.69,5.25-10.54,5.88,2.74-1.13,2.95-1.22.61-.27-1.06.42-2.13.84-3.2,1.25-2.23.86-4.45,1.74-6.73,2.45-1.15.37-2.31.69-3.49.97,3.06-.25,3.31-.3.73-.14,3.08.65,3.34.67.8.04,3.24,1.51,3.81,1.68,1.72.51,5.75,3.85,1.23.31.42-.19,2.01,2.69,2.35,3.01,1.03.98-1.1-2.16-.99-1.72.35,1.33-.56-.19-1.76-5.22-1.61-5.83.36,2.96.44,3.14.24.53-.05-1.22-.05-2.44,0-3.66.05-1.22.13-2.45.25-3.66-.44,2.93-.46,3.1-.05.5.48-2.41.94-4.81,1.49-7.21h-43.39c.54,2.48.5,2.01-.13-1.41-.1,2.52.04,2.05.42-1.39-.19,1.01-.45,2.01-.77,3,1.38-2.94,1.53-3.31.45-1.09-.48.91-1.02,1.79-1.6,2.64,2.02-2.48,2.24-2.82.66-1.02-.73.76-1.49,1.47-2.3,2.14,2.41-1.81,2.61-2.03.59-.64-1.59.81-3.9,2.91-5.72,3.04,2.9-1.19,3.2-1.33.89-.41-1.01.38-2.02.75-3.04,1.11-3.81,1.36-7.65,2.38-11.52,3.51-2.47.46-1.92.43,1.64-.09-.95.1-1.9.16-2.86.17-2.49-.11-1.88.05,1.83.48-.9-.16-1.77-.39-2.63-.68,3.23,1.49,3.8,1.63,1.7.42,1.82.91,3.18,2.27,4.09,4.09-.53-.76-1-1.55-1.42-2.37,1.27,3.26,1.51,3.73.71,1.43-.28-.93-.52-1.88-.72-2.83-.44-2.45-.4-1.94.11,1.55-.11,0-.4-5.58-.42-6.05-.09-2.2.89-7.74-.41-.66.74-2.28.44-1.64-.9,1.91-3.4,5.02-8.51,7.72-15.32,8.1l-11.36-3.07-3.13-2.48c-1.93-3.31-3.86-6.62-5.79-9.93-.31-3.25-.45-3.99-.41-2.23-.04,1.76.1,1.02.42-2.23-.86,3.91,1.85-2.6.44-.52-1.5,2.2,3.86-3.82.1-.38,1.91-1.75,2.51-1.81-.07-.45-3.73,1.96,0-.65,1.22-.43-.59-.11-2.92.91-3.55,1.06-.91.22-4.7.89-.63.24s.31-.13-.67-.11-2.04-.04-3.06-.06c-3.96-.08.56-.34,1.71.31-1.56-.88-4.81-1.33-6.59-1.75-2.58-.6,4.71,2.4,1.32.59-.93-.5-1.88-.94-2.8-1.47s-1.79-1.14-2.71-1.67c-3.83-2.22,3.72,3.47.46.43-1.59-1.48-3.09-3-4.61-4.55-3.01-3.05,1.82,3.07.68.94-.52-.96-1.25-1.83-1.81-2.77s-1.19-2.79-1.9-3.54c1.09,1.14,1.72,4.6.46.97-.08-.23-1.29-3.5-1.04-3.64.93-.54-.57,6.69-.78,7.19-1.1,2.59-9.17,8.14-4.82,5.9,1.44-.74,2.87-1.52,4.31-2.26,3.79-1.93-2.2.58.36-.14,1.41-.4,2.78-.98,4.19-1.4,1.05-.31,7.85-2.72,8.57-1.94-2.8.35-3.34.44-1.63.27.87-.09,1.74-.15,2.62-.19,1.75-.09,3.5-.08,5.25-.05l-21.7-16.52c-1.05-6.27-.19-1.54-.14.05s-.03,3.03-.1,4.56c-.21,5.05,1.23-4.84-.07.02-.39,1.46-.78,2.91-1.19,4.37-1.18,4.2,2.34-3.89,0,.15-.73,1.27-1.49,2.56-2.18,3.84-1.88,3.49,2.27-2.29.47-.49-1.18,1.18-2.28,2.41-3.53,3.53,12.54,7.3,25.07,14.59,37.61,21.89,3.41-20.61,7.64-41.07,12.76-61.32,2.38-9.43,4.58-19.11,7.87-28.27.24-.67,1.44-3.81.17-.58s.02.16.37-.51c.43-.82.88-1.63,1.37-2.42.4-.65,2.3-3.28.15-.45s-.3.26.32-.1c2.4-1.41-4.09,2.73-1.8,1.38,1.02-.58.61-.43-1.21.45-1.12.67-2.33.99-3.63.97-1.28.34-2.56.32-3.84-.05-2.26-.43-2.52-.42-.77.04l-16.52-21.7c-.76,27.42-1.52,54.83-2.27,82.25-.39,14.43.11,29.45,7.42,42.35,8.76,15.46,26.32,24.51,43.83,20.1,7.1-1.79,14.29-8.31,15.71-15.71,3.68-19.06,6.03-38.47,6.56-57.87.25-9.05.12-18.11-.4-27.14-.23-4.03-.61-8.04-.89-12.06-.14-2.02-.26-4.05-.24-6.08,0-.85.12-1.73.1-2.58-.05-2.74-1.14,3.42-.06.94.43-.97,1.97-3.84.19-1.07-.82,1.28-1.21,2.42-2.37,3.56.64-.63,2.23-1.78-.23-.15l-1.2.89c1.65-.91,1.54-.9-.32.03-2.77.47-6.77,1.62-9.71.78.58.16-8.29-5.39-5.73-3.13,2.18,1.93-2.07-3.49-.64-.89.52.95,1.2,1.85,1.77,2.78,2.05,3.35,3.92,6.8,5.61,10.35.1.22,1.18,2.16,1.07,2.31,0,0-1.56-3.96-.61-1.47.82,2.13,1.64,4.24,2.37,6.4,1.19,3.52,2.22,7.1,3.07,10.72.46,1.96.87,3.93,1.23,5.9.16.85.29,1.7.44,2.55.97,5.54-.22-3.24,0,.02.62,9.08,1.15,18.22,2.36,27.25,2.79,20.79,14.19,44.89,37.15,49.12,10.79,1.99,25.8-2.88,27.68-15.71,3.87-26.39,3.2-52.82-3.8-78.7-2.98-11.02-7.66-21.28-11.76-31.9-1.03-2.68-2.01-5.39-2.85-8.13-.44-1.43-1.03-7.5-2-8.15.62.41.32,4.7.2,1.13-.05-1.34-.12-2.65-.07-3.99.18-5-.49.27-.15.49-.42-.27,2.61-7.31-.24-.71h-38.86c15.66,27.8,31.32,55.59,46.99,83.39,14.12,25.06,32.54,53.16,64.64,53.65,7.43.12,16.06-4.26,19.43-11.14,5.38-11.02,6.6-22.78,2.27-34.44-3.49-9.4-8.9-17.16-14.46-25.38-2.32-3.43-4.39-7.01-6.19-10.74-.49-1-.95-2.01-1.4-3.03,1.17,2.81,1.29,3.05.37.71-.62-1.87-1.32-3.7-1.89-5.59-1.24-4.08-2.09-8.21-2.88-12.39-.39-2.55-.35-2.25.12.91-.12-1.13-.22-2.27-.3-3.4-.16-2.28-.22-4.55-.23-6.83-5.51,7.23-11.01,14.46-16.52,21.7-.49.17-8.81-.09-8.54-1.28-.1.43,6.62,3.58.9.29,3.28,1.88,6.33,5.16,9.26,7.55,5.92,4.82,11.83,9.65,17.75,14.47,12.09,9.86,24.18,19.72,36.27,29.57,4.77,3.89,9.53,6.59,15.91,6.59,5.52,0,12.11-2.45,15.91-6.59,7.56-8.23,9.74-23.88,0-31.82-14.15-11.54-28.3-23.07-42.45-34.61-6.95-5.66-13.85-11.38-20.84-16.99-10.31-8.27-22.45-15.29-36.14-10.59-9.4,3.23-16.58,11.37-16.52,21.7.11,19.04,4.69,37.67,13.47,54.56,3.54,6.8,8.29,12.75,12.36,19.22,1.02,1.62,2.01,3.27,2.89,4.97.5.95.97,1.91,1.4,2.88-1.12-2.74-1.42-3.33-.88-1.75.3,1.65,1.07,7.27.4.52-.08,2.49.05,1.91.4-1.72-.69,2.29-.46,1.88.69-1.22,6.48-3.71,12.95-7.43,19.43-11.14-.67.01-1.35,0-2.02-.07-1.8-.13-.89,0,2.7.39-.34-.29-3.62-1.1-3.78-1.02.89-.4,4.96,2.62,1.17.43-.96-.56-1.91-1.16-2.88-1.69-4.02-2.19,3.65,3.34.16.23-1.06-.95-2.12-1.88-3.13-2.88-1.74-1.72-3.32-3.58-4.92-5.44-3.38-3.92,2.83,4.07-.16-.23-.87-1.26-1.76-2.5-2.61-3.77-1.42-2.12-2.78-4.29-4.1-6.48-3.51-5.82-6.76-11.79-10.09-17.7-14.37-25.5-28.74-51.01-43.11-76.51-3.87-6.87-11.6-11.14-19.43-11.14-7.18,0-16.4,4.12-19.43,11.14-3.35,7.76-5.68,15.15-5.78,23.73-.08,6.85,1.16,13.97,3.03,20.54,3.23,11.39,8.8,21.93,12.53,33.15,1.88,5.64,3.42,11.38,4.65,17.2.62,2.93,1.06,5.87,1.61,8.81.62,3.32-.56-5.55.04.24.15,1.49.32,2.98.45,4.47.52,5.97.72,11.97.59,17.97-.07,3-.22,5.99-.45,8.98-.12,1.49-.29,2.98-.41,4.47-.38,4.9.66-4.15-.12,1.14,9.23-5.24,18.45-10.48,27.68-15.71.14.03-2.47-.62-2.54-.58.39-.28,5.02,2.77,1.82.69s3.58,3.6-.15-.23c-.43-.45-.89-1.19-1.4-1.54,3.09,2.12,1.99,3.02,1.02,1.09-.42-.84-.98-1.72-1.45-2.52-1.53-2.62.38.22.45,1.35-.11-1.75-1.4-4.19-1.82-5.92-.22-.91-1.33-7.11-.85-4.05s.02-.06-.02-.58c-.1-1.2-.22-2.39-.31-3.59-.18-2.41-.32-4.81-.46-7.22-1.29-20.83-5.53-40.12-14.5-59.01-4.33-9.12-9.67-18.34-17.75-24.58-12.62-9.75-29.7-7.17-40.98,3.3-17.54,16.29-11.4,41.25-10.96,62.26.22,10.66-.09,21.34-.94,31.97-.23,2.9-.5,5.79-.81,8.68-.1.96-.21,1.92-.33,2.89-.26,2.19-.43,3.98-.06.74-.67,5.75-1.78,11.47-2.87,17.15,5.24-5.24,10.48-10.48,15.71-15.71.89-.23,5.08-.09,2.01-.28l3.37.41c-1.76-.58-1.71-.52.16.16,3.92,1.17-1.68-1.57,1.4.68,2.67,1.95.15-.22-.4-.7-1.39-1.21,1.8,4.05.44.31-1.24-3.41.1,1.2.32,1.07-.04.02-1.88-6.58-1.69-6.59.2-.01.47,5.15.13-.02-.08-1.16-.12-2.32-.15-3.49-.06-2.33-.03-4.67.02-7,.13-5.83.31-11.65.48-17.48.63-22.79,1.26-45.59,1.88-68.38.28-9.99-7.21-18.94-16.52-21.7-15.98-4.72-30.08,3.95-38.92,16.74-6.71,9.7-9.48,21.86-12.51,33.08-6.44,23.88-11.64,48.08-15.68,72.48-1.59,9.61.96,20.45,10.34,25.41,9.22,4.87,19.53,3.4,27.27-3.52,16.87-15.08,21.95-38.26,18.32-59.83-1.64-9.73-12.54-16.36-21.7-16.52-15.62-.27-33,3.48-46.38,11.86-9.62,6.02-16.04,15.51-16.26,27.13-.16,8.52,2.66,16.47,6.31,24.02,10.79,22.28,36.96,38.11,61.83,35.55,18.19-1.87,35.83-11.01,42.03-29.31,3.24-9.56,3.17-21.77-3.17-29.98-9.2-11.9-26.34-13-37.18-2.72-12.22,11.59-11.95,31.18-8.04,46.35,4.61,17.9,19.51,30.48,38.09,31.06,7.79.24,15.72-1.64,23.06-4.13s15.02-5.16,21.65-9.33c18.14-11.38,28.31-31.76,23.36-53.05-4.97-21.37-38.5-21.53-43.39,0-3.85,16.93-5.13,33.97,2.54,50.02,8.43,17.66,26.76,26.13,45.72,22.48,6.35-1.22,12.41-3.84,18.35-6.33,8.64-3.61,16.16-7.43,23.45-13.4,12.2-10,19.58-25.27,19.72-41.04.1-11.77-10.42-23.04-22.5-22.5-13.13.59-21.32,9.91-22.5,22.5-1.31,13.89-.26,28.06,5.64,40.85,7.72,16.75,25.14,23.72,42.8,21.97,17.21-1.7,35-7.35,46.28-21.32,11.48-14.21,17.22-33.1,11.56-51.04-12.54,7.3-25.07,14.59-37.61,21.89,12.45,13.78,32.2,19.59,50.16,15.08,18.14-4.55,31.32-20.03,36.89-37.31,5.84-18.15,1.01-37.75-8.35-53.78-8.66-14.83-22.41-29.17-39.82-32.91-19.49-4.18-42.66,4.43-50.88,23.65,13.71,5.78,27.42,11.56,41.12,17.34,6.15-16.76,7.02-35.58,3.21-52.98-2.38-10.88-8.07-20.74-17.26-27.18-7.68-5.38-17.37-7.3-26.65-6.8s-17.88,1.92-26.37,4.51c-9.33,2.84-18.97,6.53-25.86,13.69-7.17,7.44-8.95,17-10.01,26.84-.13,1.18-.22,2.36-.33,3.53-.26,2.71-1.51,3.6.27-1.53-.15.44-.85,2.41-.71,2.9.72-2.7,2.08-5.02,4.08-6.97,8.42-3.88,10.74-5.3,6.96-4.27,9.49,7.23,18.99,14.46,28.48,21.7-1.22-17.53-3.12-35.54-11.71-51.22-9.95-18.15-29.92-29.48-50.69-27.75-9.38.78-18.13,2.86-26.81,6.43-9.26,3.81-19.74,7.75-26.58,15.4-7.57,8.47-10.04,18.94-9.93,30.06.03,3.25.31,6.51.2,9.76-.2,6.17.97-3.68.04-.06-.72,2.22-.38,1.45,1.02-2.3,2.56-2.98,3.04-3.63,1.44-1.96,12.54,3.31,25.07,6.62,37.61,9.93-3.29-16.5-7.86-33.3-19.5-46.04-12.44-13.6-32.57-19.18-49.7-11.95-17.4,7.34-24.21,24.95-25.29,42.59-.37,5.96-.02,11.94-.11,17.9-.04,2.75-.38,5.49-.46,8.23.19-6.46.35-2.57-.09-.73-.4,1.67-2.69,7.22.17.76,13.98,3.79,27.95,7.57,41.93,11.36-1.69-18.46-11.59-34.04-29.31-40.78-14.87-5.65-32.54-.35-42.79,11.59S-1.89,93.35,4.38,109.02c6.72,16.8,21.02,28.88,39.64,29.29,11.77.26,23.04-10.53,22.5-22.5-.56-12.41-9.88-22.23-22.5-22.5h0Z"/><text class="cls-2" transform="translate(60.12 136.16)"><tspan class="cls-1" x="0" y="0">Ida strikker</tspan><tspan class="cls-3" x="229.01" y="0"> </tspan></text></svg>